<?xml version="1.0" encoding="UTF-8" standalone="no"?>
<!-- Created with Inkscape (http://www.inkscape.org/) -->

<svg
   xmlns:osb="http://www.openswatchbook.org/uri/2009/osb"
   xmlns:dc="http://purl.org/dc/elements/1.1/"
   xmlns:cc="http://creativecommons.org/ns#"
   xmlns:rdf="http://www.w3.org/1999/02/22-rdf-syntax-ns#"
   xmlns:svg="http://www.w3.org/2000/svg"
   xmlns="http://www.w3.org/2000/svg"
   xmlns:sodipodi="http://sodipodi.sourceforge.net/DTD/sodipodi-0.dtd"
   xmlns:inkscape="http://www.inkscape.org/namespaces/inkscape"
   width="200"
   height="200"
   id="svg2"
   version="1.1"
   inkscape:version="0.48.2 r9819"
   sodipodi:docname="levels.svg"
   inkscape:export-filename="/Users/stevesan84/reflect_git/svg/levels.png"
   inkscape:export-xdpi="200.07483"
   inkscape:export-ydpi="200.07483">
  <defs
     id="defs4">
    <linearGradient
       id="linearGradient4006"
       osb:paint="solid">
      <stop
         style="stop-color:#000000;stop-opacity:1;"
         offset="0"
         id="stop4008" />
    </linearGradient>
  </defs>
  <sodipodi:namedview
     id="base"
     pagecolor="#ffffff"
     bordercolor="#666666"
     borderopacity="1.0"
     inkscape:pageopacity="0.0"
     inkscape:pageshadow="2"
     inkscape:zoom="3.162612"
     inkscape:cx="396.10873"
     inkscape:cy="-803.5417"
     inkscape:document-units="px"
     inkscape:current-layer="layer2"
     showgrid="true"
     inkscape:window-width="1276"
     inkscape:window-height="756"
     inkscape:window-x="8"
     inkscape:window-y="0"
     inkscape:window-maximized="0"
     inkscape:snap-global="true"
     showguides="true"
     inkscape:guide-bbox="true">
    <inkscape:grid
       type="xygrid"
       id="grid4876"
       empspacing="4"
       visible="true"
       enabled="true"
       snapvisiblegridlinesonly="true"
       spacingx="5px"
       spacingy="5px" />
  </sodipodi:namedview>
  <metadata
     id="metadata7">
    <rdf:RDF>
      <cc:Work
         rdf:about="">
        <dc:format>image/svg+xml</dc:format>
        <dc:type
           rdf:resource="http://purl.org/dc/dcmitype/StillImage" />
        <dc:title></dc:title>
      </cc:Work>
    </rdf:RDF>
  </metadata>
  <g
     inkscape:label="level1"
     inkscape:groupmode="layer"
     id="layer1">
    <rect
       maxReflections="1"
       gameObjType="levelArea"
       y="825"
       x="0"
       height="99.999977"
       width="99.999977"
       id="rect3310"
       style="fill:#000000;fill-opacity:1;stroke:none" />
    <rect
       style="fill:#000000;fill-opacity:1;stroke:none"
       id="rect3351"
       width="99.999977"
       height="99.999977"
       x="750"
       y="575"
       gameObjType="levelArea"
       maxReflections="2" />
    <rect
       maxReflections="2"
       gameObjType="levelArea"
       y="575"
       x="875"
       height="99.999977"
       width="99.999977"
       id="rect3321"
       style="fill:#000000;fill-opacity:1;stroke:none" />
    <rect
       maxReflections="1"
       style="fill:#000000;fill-opacity:1;stroke:none"
       id="rect5683"
       width="100.00001"
       height="99.999977"
       x="125"
       y="700"
       gameObjType="levelArea" />
    <rect
       gameObjType="levelArea"
       y="700"
       x="0"
       height="99.999977"
       width="100"
       id="rect4451-2"
       style="fill:#000000;fill-opacity:1;stroke:none"
       maxReflections="0" />
    <rect
       gameObjType="levelArea"
       y="450"
       x="125"
       height="99.999977"
       width="100.00001"
       id="rect4451"
       style="fill:#000000;fill-opacity:1;stroke:none"
       maxReflections="2" />
    <rect
       gameObjType="levelArea"
       y="575"
       x="625"
       height="99.999977"
       width="100.00001"
       id="rect4327"
       style="fill:#000000;fill-opacity:1;stroke:none"
       maxReflections="2" />
    <rect
       style="fill:#000000;fill-opacity:1;stroke:none"
       id="rect4279"
       width="100.00001"
       height="99.999977"
       x="500"
       y="575"
       gameObjType="levelArea"
       maxReflections="1" />
    <rect
       style="fill:#000000;fill-opacity:1;stroke:none"
       id="rect4250"
       width="100"
       height="99.999977"
       x="375"
       y="575"
       gameObjType="levelArea"
       maxReflections="2" />
    <rect
       gameObjType="levelArea"
       y="575"
       x="125"
       height="99.999977"
       width="99.999977"
       id="rect3451"
       style="fill:#000000;fill-opacity:1;stroke:none"
       maxReflections="2" />
    <rect
       maxReflections="0"
       style="fill:#000000;fill-opacity:1;stroke:none"
       id="rect5570"
       width="100.00001"
       height="99.999977"
       x="0"
       y="575"
       gameObjType="levelArea" />
    <rect
       style="fill:#000000;fill-opacity:1;stroke:none"
       id="rect3422"
       width="99.999985"
       height="99.999985"
       x="480"
       y="320"
       gameObjType="levelArea"
       maxReflections="1" />
    <rect
       gameObjType="levelArea"
       y="320"
       x="360"
       height="99.999977"
       width="100"
       id="rect3125"
       style="fill:#000000;fill-opacity:1;stroke:none"
       maxReflections="1" />
    <rect
       style="fill:#000000;fill-opacity:1;stroke:none"
       id="rect5029"
       width="100"
       height="99.999985"
       x="0"
       y="450"
       gameObjType="levelArea"
       maxReflections="2" />
    <rect
       gameObjType="levelArea"
       y="320"
       x="240"
       height="99.999985"
       width="99.999985"
       id="rect4977"
       style="fill:#000000;fill-opacity:1;stroke:none"
       maxReflections="1" />
    <rect
       style="fill:#000000;fill-opacity:1;stroke:none"
       id="rect4724"
       width="99.999985"
       height="99.999985"
       x="120"
       y="320"
       gameObjType="levelArea"
       maxReflections="1" />
    <rect
       style="fill:#000000;fill-opacity:1;stroke:none"
       id="rect4638"
       width="100"
       height="99.999985"
       x="0"
       y="320"
       gameObjType="levelArea"
       maxReflections="1" />
    <rect
       gameObjType="levelArea"
       y="200"
       x="730"
       height="99.999985"
       width="100"
       id="rect4570"
       style="fill:#000000;fill-opacity:1;stroke:none"
       maxReflections="1" />
    <rect
       style="fill:#000000;fill-opacity:1;stroke:none"
       id="area3"
       width="99.999977"
       height="99.999977"
       x="250"
       y="575"
       gameObjType="levelArea"
       maxReflections="1" />
    <rect
       gameObjType="levelArea"
       y="200"
       x="605"
       height="99.999992"
       width="99.999985"
       id="area2"
       style="fill:#000000;fill-opacity:1;stroke:none"
       maxReflections="1" />
    <rect
       gameObjType="levelArea"
       y="200"
       x="480"
       height="99.999977"
       width="100.00001"
       id="area1"
       style="fill:#000000;fill-opacity:1;stroke:none"
       maxReflections="1" />
    <rect
       style="fill:#000000;fill-opacity:1;stroke:none"
       id="area0"
       width="100"
       height="99.999985"
       x="120"
       y="200"
       gameObjType="levelArea"
       maxReflections="1" />
    <rect
       gameObjType="levelArea"
       y="200"
       x="0"
       height="99.999985"
       width="100"
       id="rect4480"
       style="fill:#000000;fill-opacity:1;stroke:none"
       maxReflections="0" />
    <path
       style="fill:#ffffff;fill-opacity:1;stroke:none"
       d="m 93.42605,729.8713 -21.71303,32.3622 -15,0 0,-10 -13.30506,0 0.0181,10 L 5,762.2335 5,730 c 29.99834,-0.2888 58.42644,-0.1287 88.42605,-0.1287 z"
       id="path3236"
       inkscape:connector-curvature="0"
       gameObjType="levelGeo"
       sodipodi:nodetypes="ccccccccc" />
    <path
       style="fill:#ffffff;fill-opacity:1;stroke:none"
       d="m 20,487.36221 20,0 0,15.6375 -20,0 z"
       id="path5035"
       gameObjType="levelGeo"
       inkscape:connector-curvature="0" />
    <path
       style="fill:#ffffff;fill-opacity:1;stroke:none"
       d="m 20,235 65,0 0,25 -20,0 0,-10 -20,0 0,10 -25,0 z"
       id="path4482"
       gameObjType="levelGeo"
       inkscape:connector-curvature="0"
       sodipodi:nodetypes="ccccccccc" />
    <path
       style="fill:#ffffff;fill-opacity:1;stroke:none"
       d="m 630,225 50,0 0,15 -50,0 z"
       id="path4103"
       gameObjType="levelGeo"
       inkscape:connector-curvature="0" />
    <path
       style="fill:#ffffff;fill-opacity:1;stroke:none"
       d="m 280,605 40,0 0,40 -40,0 z"
       id="rect3911"
       gameObjType="levelGeo"
       inkscape:connector-curvature="0" />
    <path
       sodipodi:nodetypes="ccccccc"
       inkscape:connector-curvature="0"
       gameObjType="levelGeo"
       id="path4526"
       d="m 140,235 40,0 0,15 -15,0 0,10 -25,0 z"
       style="fill:#ffffff;fill-opacity:1;stroke:none" />
    <path
       style="fill:#ffffff;fill-opacity:1;stroke:none"
       d="m 130,345 77.8125,0 0,15.6562 -18.9375,0 0,39.75 -41.375,0 0,-39.75 -17.5,0 z"
       id="path4726"
       gameObjType="levelGeo"
       inkscape:connector-curvature="0"
       sodipodi:nodetypes="ccccccccc" />
    <path
       style="fill:#ffffff;fill-opacity:1;stroke:none"
       d="m 270,325 40,0 0,40 20,0 0,15 -20,0 0,35 -40,0 0,-35 -20,0 0,-15 20,0 z"
       id="path4985"
       inkscape:connector-curvature="0"
       gameObjType="levelGeo"
       sodipodi:nodetypes="ccccccccccccc" />
    <path
       style="fill:#ffffff;fill-opacity:1;stroke:none"
       d="m 435,345 0,30 -10,0 0,20 -40,0 0,-50 z"
       id="path3135"
       inkscape:connector-curvature="0"
       sodipodi:nodetypes="ccccccc"
       gameObjType="levelGeo" />
    <path
       style="fill:#ffffff;fill-opacity:1;stroke:none"
       d="m 495,345 20,0 0,15.6375 -20,0 z"
       id="path3428"
       gameObjType="levelGeo"
       inkscape:connector-curvature="0" />
    <path
       inkscape:connector-curvature="0"
       gameObjType="levelGeo"
       id="path3430"
       d="m 495,380 70,0 0,15 -70,0 z"
       style="fill:#ffffff;fill-opacity:1;stroke:none" />
    <path
       inkscape:connector-curvature="0"
       gameObjType="levelGeo"
       id="path3457"
       d="m 150,595 30,0 0,30 -30,0 z"
       style="fill:#ffffff;fill-opacity:1;stroke:none" />
    <path
       style="fill:#ffffff;fill-opacity:1;stroke:none"
       d="m 380,610 15.42881,0 L 430,625 430,640 395.42881,625 380,625 z"
       id="path4256"
       gameObjType="levelGeo"
       inkscape:connector-curvature="0"
       sodipodi:nodetypes="ccccccc" />
    <path
       style="fill:#ffffff;fill-opacity:1;stroke:none"
       d="m 505,605 90,0 0,15 -90,0 z"
       id="path4285"
       gameObjType="levelGeo"
       inkscape:connector-curvature="0" />
    <path
       inkscape:connector-curvature="0"
       gameObjType="levelGeo"
       id="path4333"
       d="m 665,589.99998 40,0 0,40 -40,0 z"
       style="fill:#ffffff;fill-opacity:1;stroke:none" />
    <path
       sodipodi:nodetypes="ccccccc"
       inkscape:connector-curvature="0"
       gameObjType="levelGeo"
       id="path4453"
       d="m 135,475 45,0 0.25,55 -25.25,0 0,-40 -20,0 z"
       style="fill:#ffffff;fill-opacity:1;stroke:none" />
    <path
       style="fill:#ffffff;fill-opacity:1;stroke:none"
       d="m 740,220 80,0 0,40 -20,0 0,-25 -40,0 0,25 -20,0 z"
       id="path4576"
       gameObjType="levelGeo"
       inkscape:connector-curvature="0"
       sodipodi:nodetypes="ccccccccc" />
    <path
       inkscape:connector-curvature="0"
       gameObjType="levelGeo"
       id="path4644"
       d="m 10,340 20.28436,0 0,32.4641 29.43128,0 0,-32.4641 30.28436,0 0,40 -80,0 z"
       style="fill:#ffffff;fill-opacity:1;stroke:none"
       sodipodi:nodetypes="ccccccccc" />
    <path
       style="fill:#ffffff;fill-opacity:1;stroke:none"
       d="m 530,245 50,0 0,15 -50,0 z"
       id="path4058"
       gameObjType="levelGeo"
       inkscape:connector-curvature="0" />
    <rect
       width="10"
       y="747.23352"
       x="6.7130127"
       height="10"
       id="rect4457-9"
       style="fill:#ffff00;fill-opacity:1;stroke:none;display:inline"
       gameObjType="goal" />
    <path
       style="fill:#ffffff;fill-opacity:1;stroke:none"
       d="m 10,600 80,0 0,30 -80,0 z"
       id="path5572"
       gameObjType="levelGeo"
       inkscape:connector-curvature="0" />
    <rect
       gameObjType="player"
       width="10"
       y="747.23352"
       x="31.713013"
       height="10"
       id="rect4455-9"
       style="fill:#00ff00;fill-opacity:1;stroke:none;display:inline" />
    <path
       inkscape:connector-curvature="0"
       gameObjType="levelGeo"
       id="path5823"
       d="m 139.52063,716.0468 20,0 0,15.6375 -20,0 z"
       style="fill:#ffffff;fill-opacity:1;stroke:none" />
    <path
       style="fill:#ffffff;fill-opacity:1;stroke:none"
       d="m 139.52063,751.0468 70,0 0,15 -70,0 z"
       id="path5825"
       gameObjType="levelGeo"
       inkscape:connector-curvature="0" />
    <rect
       gameObjType="goal"
       style="fill:#ffff00;fill-opacity:1;stroke:none;display:inline"
       id="rect5687"
       height="10"
       x="199.52063"
       y="756.04675"
       width="10" />
    <rect
       style="fill:#00ff00;fill-opacity:1;stroke:none;display:inline"
       id="rect5689"
       height="10"
       x="139.52063"
       y="756.04675"
       width="10"
       gameObjType="player" />
    <path
       inkscape:connector-curvature="0"
       gameObjType="levelGeo"
       id="path3323"
       d="m 890,605 40,0 0,40 -20,0 0,10 -20,0 z"
       style="fill:#ffffff;fill-opacity:1;stroke:none"
       sodipodi:nodetypes="ccccccc" />
    <path
       inkscape:connector-curvature="0"
       gameObjType="levelGeo"
       id="path4056"
       d="m 486.0411,245 18.78004,0 0,15 -18.78004,0 z"
       style="fill:#ffffff;fill-opacity:1;stroke:none" />
    <path
       style="fill:#ffffff;fill-opacity:1;stroke:none"
       d="m 765,605 40,0 0,40 -40,0 z"
       id="path3353"
       gameObjType="levelGeo"
       inkscape:connector-curvature="0" />
    <path
       inkscape:connector-curvature="0"
       gameObjType="levelGeo"
       id="path3312"
       d="m 10,855 80,0 0,40 -80,0 z"
       style="fill:#ffffff;fill-opacity:1;stroke:none"
       sodipodi:nodetypes="ccccc" />
    <rect
       gameObjType="levelArea"
       y="700"
       x="380"
       height="99.999977"
       width="100.00001"
       id="rect3244"
       style="fill:#000000;fill-opacity:1;stroke:none"
       maxReflections="1" />
    <path
       inkscape:connector-curvature="0"
       gameObjType="levelGeo"
       id="path3248"
       d="m 420,740 40,0 0,20 -20,0 0,20 -20,0 z"
       style="fill:#ffffff;fill-opacity:1;stroke:none"
       sodipodi:nodetypes="ccccccc" />
    <rect
       width="10"
       y="750"
       x="450"
       height="10"
       id="rect3250"
       style="fill:#ffff00;fill-opacity:1;stroke:none;display:inline"
       gameObjType="goal" />
    <rect
       gameObjType="player"
       width="10"
       y="750"
       x="440"
       height="10"
       id="rect3252"
       style="fill:#00ff00;fill-opacity:1;stroke:none;display:inline" />
    <path
       style="fill:#ffffff;fill-opacity:1;stroke:none"
       d="m 420,715 10,0 0,15 -10,0 z"
       id="path3305"
       gameObjType="levelGeo"
       inkscape:connector-curvature="0" />
    <rect
       gameObjType="levelArea"
       y="700"
       x="250"
       height="99.999977"
       width="100.00001"
       id="rect3556"
       style="fill:#000000;fill-opacity:1;stroke:none"
       maxReflections="1" />
    <path
       sodipodi:nodetypes="ccccccc"
       style="fill:#ffffff;fill-opacity:1;stroke:none"
       d="m 280,720 40,0 0,20 -20,0 0,40 -20,0 z"
       id="path3568"
       gameObjType="levelGeo"
       inkscape:connector-curvature="0" />
    <rect
       width="10"
       y="770"
       x="280"
       height="10"
       id="rect3562"
       style="fill:#ffff00;fill-opacity:1;stroke:none;display:inline"
       gameObjType="goal" />
    <rect
       gameObjType="player"
       width="10"
       y="770"
       x="290"
       height="10"
       id="rect3564"
       style="fill:#00ff00;fill-opacity:1;stroke:none;display:inline" />
    <rect
       maxReflections="1"
       style="fill:#000000;fill-opacity:1;stroke:none"
       id="rect3260"
       width="100.00001"
       height="99.999977"
       x="240"
       y="200"
       gameObjType="levelArea" />
    <path
       inkscape:connector-curvature="0"
       gameObjType="levelGeo"
       id="path3262"
       d="m 300,240 40,0 0,20 -40,0 z"
       style="fill:#ffffff;fill-opacity:1;stroke:none" />
    <path
       style="fill:#ffffff;fill-opacity:1;stroke:none"
       d="m 240,240 40,0 0,20 -40,0 z"
       id="path3264"
       gameObjType="levelGeo"
       inkscape:connector-curvature="0" />
    <rect
       gameObjType="levelArea"
       y="200"
       x="360"
       height="99.999977"
       width="100.00001"
       id="rect3270"
       style="fill:#000000;fill-opacity:1;stroke:none"
       maxReflections="1" />
    <path
       style="fill:#ffffff;fill-opacity:1;stroke:none"
       d="m 450,240 10,0 0,20 -10,0 z"
       id="path3272"
       gameObjType="levelGeo"
       inkscape:connector-curvature="0" />
    <path
       inkscape:connector-curvature="0"
       gameObjType="levelGeo"
       id="path3274"
       d="m 360,240 40,0 0,20 -40,0 z"
       style="fill:#ffffff;fill-opacity:1;stroke:none" />
    <path
       inkscape:connector-curvature="0"
       gameObjType="levelGeo"
       id="path3280"
       d="m 420,240 10,0 0,20 -10,0 z"
       style="fill:#ffffff;fill-opacity:1;stroke:none" />
    <rect
       gameObjType="levelArea"
       y="940"
       x="0"
       height="99.999977"
       width="100.00001"
       id="rect4204"
       style="fill:#000000;fill-opacity:1;stroke:none"
       maxReflections="1" />
    <path
       inkscape:connector-curvature="0"
       gameObjType="levelGeo"
       id="path4208"
       d="m 20,985 60,0 0,15 -60,0 z"
       style="fill:#ffffff;fill-opacity:1;stroke:none"
       sodipodi:nodetypes="ccccc" />
    <rect
       width="10"
       y="990"
       x="70"
       height="10"
       id="rect4210"
       style="fill:#ffff00;fill-opacity:1;stroke:none;display:inline"
       gameObjType="goal" />
    <rect
       gameObjType="player"
       width="10"
       y="990"
       x="20"
       height="10"
       id="rect4212"
       style="fill:#00ff00;fill-opacity:1;stroke:none;display:inline" />
    <path
       sodipodi:nodetypes="ccccc"
       inkscape:connector-curvature="0"
       gameObjType="rockGeo"
       id="path3415"
       d="m 40,990 20,0 0,10 -20,0 z"
       style="fill:#ae550b;fill-opacity:1;stroke:none" />
    <rect
       maxReflections="2"
       style="fill:#000000;fill-opacity:1;stroke:none"
       id="rect4255"
       width="100.00001"
       height="99.999977"
       x="120"
       y="940"
       gameObjType="levelArea" />
    <path
       sodipodi:nodetypes="ccccc"
       style="fill:#ffffff;fill-opacity:1;stroke:none"
       d="m 140,960 40,0 0,20 -40,0 z"
       id="path4257"
       gameObjType="levelGeo"
       inkscape:connector-curvature="0" />
    <rect
       gameObjType="goal"
       style="fill:#ffff00;fill-opacity:1;stroke:none;display:inline"
       id="rect4259"
       height="10"
       x="145"
       y="1005"
       width="10" />
    <rect
       style="fill:#00ff00;fill-opacity:1;stroke:none;display:inline"
       id="rect4261"
       height="10"
       x="145"
       y="970"
       width="10"
       gameObjType="player" />
    <path
       style="fill:#ae550b;fill-opacity:1;stroke:none"
       d="m 140,980 20,0 0,20 -20,0 z"
       id="path4263"
       gameObjType="rockGeo"
       inkscape:connector-curvature="0"
       sodipodi:nodetypes="ccccc" />
    <rect
       gameObjType="levelArea"
       y="940"
       x="240"
       height="99.999977"
       width="100.00001"
       id="rect4303"
       style="fill:#000000;fill-opacity:1;stroke:none"
       maxReflections="2" />
    <path
       inkscape:connector-curvature="0"
       gameObjType="levelGeo"
       id="path4305"
       d="m 295,960 40,0 0,60 -40,0 z"
       style="fill:#ffffff;fill-opacity:1;stroke:none"
       sodipodi:nodetypes="ccccc" />
    <rect
       width="10"
       y="965"
       x="320"
       height="10"
       id="rect4307"
       style="fill:#ffff00;fill-opacity:1;stroke:none;display:inline"
       gameObjType="goal" />
    <rect
       gameObjType="player"
       width="10"
       y="1010"
       x="320"
       height="10"
       id="rect4309"
       style="fill:#00ff00;fill-opacity:1;stroke:none;display:inline" />
    <path
       sodipodi:nodetypes="ccccccccc"
       inkscape:connector-curvature="0"
       gameObjType="rockGeo"
       id="path4311"
       d="m 280,1010 10,0 0,10 -30,0 0,-30 10,0 0,10 10,0 z"
       style="fill:#ae550b;fill-opacity:1;stroke:none" />
    <rect
       maxReflections="1"
       style="fill:#000000;fill-opacity:1;stroke:none"
       id="rect4351"
       width="100.00001"
       height="99.999977"
       x="360"
       y="940"
       gameObjType="levelArea" />
    <path
       sodipodi:nodetypes="ccccc"
       style="fill:#ffffff;fill-opacity:1;stroke:none"
       d="m 400,995 50,0 0,25 -50,0 z"
       id="path4353"
       gameObjType="levelGeo"
       inkscape:connector-curvature="0" />
    <rect
       gameObjType="goal"
       style="fill:#ffff00;fill-opacity:1;stroke:none;display:inline"
       id="rect4355"
       height="10"
       x="440"
       y="1010"
       width="10" />
    <rect
       style="fill:#00ff00;fill-opacity:1;stroke:none;display:inline"
       id="rect4357"
       height="10"
       x="420"
       y="1010"
       width="10"
       gameObjType="player" />
    <path
       style="fill:#ae550b;fill-opacity:1;stroke:none"
       d="m 400,1010 10,0 0,10 -10,0 z"
       id="path4359"
       gameObjType="rockGeo"
       inkscape:connector-curvature="0"
       sodipodi:nodetypes="ccccc" />
  </g>
  <g
     inkscape:groupmode="layer"
     id="layer2"
     inkscape:label="gameObjects"
     style="display:inline">
    <rect
       width="10"
       y="235"
       x="70"
       height="10"
       id="rect4486"
       style="fill:#ffff00;fill-opacity:1;stroke:none"
       gameObjType="goal" />
    <rect
       gameObjType="goal"
       style="fill:#ffff00;fill-opacity:1;stroke:none"
       id="rect4530"
       height="10"
       x="190"
       y="235"
       width="10" />
    <rect
       gameObjType="goal"
       style="fill:#ffff00;fill-opacity:1;stroke:none"
       id="rect4101"
       height="10"
       x="665"
       y="265"
       width="10" />
    <rect
       gameObjType="goal"
       style="fill:#d9d987;fill-opacity:1;stroke:none"
       id="rect4054"
       height="10"
       x="550"
       y="250"
       width="10" />
    <rect
       width="10"
       y="610"
       x="305"
       height="10"
       id="rect3846-0"
       style="fill:#ffff00;fill-opacity:1;stroke:none"
       gameObjType="goal" />
    <rect
       gameObjType="goal"
       style="fill:#ffff00;fill-opacity:1;stroke:none"
       id="rect4574"
       height="10"
       x="805"
       y="250"
       width="10" />
    <rect
       width="10"
       y="365"
       x="80"
       height="10"
       id="rect4642"
       style="fill:#ffff00;fill-opacity:1;stroke:none"
       gameObjType="goal" />
    <rect
       gameObjType="goal"
       style="fill:#ffff00;fill-opacity:1;stroke:none"
       id="rect4809"
       height="10"
       x="195.17615"
       y="347.99109"
       width="10" />
    <rect
       width="10"
       y="370"
       x="315"
       height="10"
       id="rect4983"
       style="fill:#ffff00;fill-opacity:1;stroke:none"
       gameObjType="goal" />
    <rect
       width="10"
       y="480"
       x="200"
       height="10"
       id="rect4457"
       style="fill:#ffff00;fill-opacity:1;stroke:none"
       gameObjType="goal" />
    <rect
       gameObjType="goal"
       style="fill:#ffff00;fill-opacity:1;stroke:none"
       id="rect4329"
       height="10"
       x="690"
       y="605"
       width="10" />
    <rect
       width="10"
       y="610"
       x="575"
       height="10"
       id="rect4281"
       style="fill:#ffff00;fill-opacity:1;stroke:none"
       gameObjType="goal" />
    <rect
       width="10"
       y="615"
       x="460"
       height="10"
       id="rect4252"
       style="fill:#ffff00;fill-opacity:1;stroke:none"
       gameObjType="goal" />
    <rect
       gameObjType="goal"
       style="fill:#ffff00;fill-opacity:1;stroke:none"
       id="rect3453"
       height="10"
       x="190"
       y="640"
       width="10" />
    <rect
       width="10"
       y="350"
       x="550"
       height="10"
       id="rect3424"
       style="fill:#ffff00;fill-opacity:1;stroke:none"
       gameObjType="goal" />
    <rect
       gameObjType="goal"
       style="fill:#ffff00;fill-opacity:1;stroke:none"
       id="rect3127"
       height="10"
       x="425"
       y="350"
       width="10" />
    <rect
       width="10"
       y="492.36218"
       x="75"
       height="10"
       id="rect5031"
       style="fill:#ffff00;fill-opacity:1;stroke:none"
       gameObjType="goal" />
    <rect
       width="10"
       y="650"
       x="640"
       height="10"
       id="rect4335"
       style="fill:#00a3ff;fill-opacity:1;stroke:none"
       gameObjType="key" />
    <rect
       gameObjType="key"
       style="fill:#00a3ff;fill-opacity:1;stroke:none"
       id="rect4287"
       height="10"
       x="565"
       y="625"
       width="10" />
    <rect
       gameObjType="key"
       style="fill:#00a3ff;fill-opacity:1;stroke:none"
       id="rect4258"
       height="10"
       x="425"
       y="595"
       width="10" />
    <rect
       width="10"
       y="615"
       x="190"
       height="10"
       id="rect3461"
       style="fill:#00a3ff;fill-opacity:1;stroke:none"
       gameObjType="key" />
    <rect
       gameObjType="player"
       width="10"
       y="480"
       x="140"
       height="10"
       id="rect4455"
       style="fill:#00ff00;fill-opacity:1;stroke:none" />
    <rect
       gameObjType="player"
       width="10"
       y="620"
       x="670"
       height="10"
       id="rect4331"
       style="fill:#00ff00;fill-opacity:1;stroke:none" />
    <rect
       style="fill:#00ff00;fill-opacity:1;stroke:none"
       id="rect4283"
       height="10"
       x="515"
       y="610"
       width="10"
       gameObjType="player" />
    <rect
       style="fill:#00ff00;fill-opacity:1;stroke:none"
       id="rect4254"
       height="10"
       x="385"
       y="615"
       width="10"
       gameObjType="player" />
    <rect
       gameObjType="player"
       width="10"
       y="615"
       x="160"
       height="10"
       id="rect3455"
       style="fill:#00ff00;fill-opacity:1;stroke:none" />
    <rect
       style="fill:#00ff00;fill-opacity:1;stroke:none"
       id="rect3426"
       height="10"
       x="500"
       y="350"
       width="10"
       gameObjType="player" />
    <rect
       gameObjType="player"
       width="10"
       y="385"
       x="385"
       height="10"
       id="rect3129"
       style="fill:#00ff00;fill-opacity:1;stroke:none" />
    <rect
       style="fill:#00ff00;fill-opacity:1;stroke:none"
       id="rect5033"
       height="10"
       x="25"
       y="492.36218"
       width="10"
       gameObjType="player" />
    <rect
       style="fill:#00ff00;fill-opacity:1;stroke:none"
       id="rect4728"
       height="10"
       x="134.48669"
       y="348.13049"
       width="10"
       gameObjType="player" />
    <rect
       gameObjType="player"
       width="10"
       y="370.1394"
       x="254.31055"
       height="10"
       id="rect4981"
       style="fill:#00ff00;fill-opacity:1;stroke:none" />
    <rect
       style="fill:#00ff00;fill-opacity:1;stroke:none"
       id="rect4640"
       height="10"
       x="15"
       y="370"
       width="10"
       gameObjType="player" />
    <rect
       gameObjType="player"
       width="10"
       y="250"
       x="745"
       height="10"
       id="rect4572"
       style="fill:#00ff00;fill-opacity:1;stroke:none" />
    <rect
       gameObjType="player"
       width="10"
       y="250"
       x="145"
       height="10"
       id="rect4528"
       style="fill:#00ff00;fill-opacity:1;stroke:none" />
    <rect
       style="fill:#00ff00;fill-opacity:1;stroke:none"
       id="rect4484"
       height="10"
       x="25"
       y="250"
       width="10"
       gameObjType="player" />
    <rect
       gameObjType="player"
       width="10"
       y="230"
       x="635"
       height="10"
       id="rect4409"
       style="fill:#00ff00;fill-opacity:1;stroke:none" />
    <rect
       gameObjType="player"
       width="10"
       y="250"
       x="490"
       height="10"
       id="rect4052"
       style="fill:#00ff00;fill-opacity:1;stroke:none" />
    <rect
       style="fill:#00ff00;fill-opacity:1;stroke:none"
       id="rect3844-3"
       height="10"
       x="290"
       y="635"
       width="10"
       gameObjType="player" />
    <rect
       gameObjType="ballKey"
       style="fill:#ff3b00;fill-opacity:1;stroke:none"
       id="rect5473"
       height="10"
       x="71.713013"
       y="732.23352"
       width="10" />
    <rect
       width="10"
       y="617.36218"
       x="45"
       height="10"
       id="rect5574"
       style="fill:#ffff00;fill-opacity:1;stroke:none"
       gameObjType="goal" />
    <rect
       gameObjType="key"
       style="fill:#00a3ff;fill-opacity:1;stroke:none"
       id="rect5576"
       height="10"
       x="75"
       y="617.36218"
       width="10" />
    <rect
       style="fill:#00ff00;fill-opacity:1;stroke:none"
       id="rect5578"
       height="10"
       x="15"
       y="617.36218"
       width="10"
       gameObjType="player" />
    <rect
       width="10"
       y="720"
       x="145"
       height="10"
       id="rect5827"
       style="fill:#ff3b00;fill-opacity:1;stroke:none"
       gameObjType="ballKey" />
    <rect
       gameObjType="goal"
       style="fill:#ffff00;fill-opacity:1;stroke:none"
       id="rect3325"
       height="10"
       x="895"
       y="645"
       width="10" />
    <rect
       gameObjType="player"
       width="10"
       y="635"
       x="915"
       height="10"
       id="rect3327"
       style="fill:#00ff00;fill-opacity:1;stroke:none" />
    <rect
       width="10"
       y="645"
       x="960"
       height="10"
       id="rect3329"
       style="fill:#00a3ff;fill-opacity:1;stroke:none"
       gameObjType="key" />
    <rect
       width="10"
       y="610"
       x="755"
       height="10"
       id="rect3355"
       style="fill:#ffff00;fill-opacity:1;stroke:none"
       gameObjType="goal" />
    <rect
       style="fill:#00ff00;fill-opacity:1;stroke:none"
       id="rect3357"
       height="10"
       x="775"
       y="635"
       width="10"
       gameObjType="player" />
    <rect
       gameObjType="key"
       style="fill:#00a3ff;fill-opacity:1;stroke:none"
       id="rect3359"
       height="10"
       x="835"
       y="610"
       width="10" />
    <rect
       gameObjType="key"
       style="fill:#00a3ff;fill-opacity:1;stroke:none"
       id="rect3532"
       height="10"
       x="915"
       y="610"
       width="10" />
    <rect
       width="10"
       y="610"
       x="945"
       height="10"
       id="rect3232"
       style="fill:#00a3ff;fill-opacity:1;stroke:none"
       gameObjType="key" />
    <rect
       gameObjType="goal"
       style="fill:#ffff00;fill-opacity:1;stroke:none"
       id="rect3314"
       height="10"
       x="45"
       y="860"
       width="10" />
    <rect
       gameObjType="player"
       width="10"
       y="885"
       x="45"
       height="10"
       id="rect3316"
       style="fill:#00ff00;fill-opacity:1;stroke:none" />
    <rect
       gameObjType="key"
       style="fill:#00a3ff;fill-opacity:1;stroke:none"
       id="rect3318"
       height="10"
       x="320"
       y="625"
       width="10" />
    <rect
       gameObjType="ballKey"
       style="fill:#ff3b00;fill-opacity:1;stroke:none"
       id="rect3254"
       height="10"
       x="420"
       y="720"
       width="10" />
    <rect
       width="10"
       y="750"
       x="400"
       height="10"
       id="rect3535"
       style="fill:#00a3ff;fill-opacity:1;stroke:none"
       gameObjType="key" />
    <rect
       width="10"
       y="730"
       x="305"
       height="10"
       id="rect3570"
       style="fill:#ff3b00;fill-opacity:1;stroke:none"
       gameObjType="ballKey" />
    <rect
       width="10"
       y="250"
       x="245"
       height="10"
       id="rect3266"
       style="fill:#d9d987;fill-opacity:1;stroke:none"
       gameObjType="goal" />
    <rect
       style="fill:#00ff00;fill-opacity:1;stroke:none"
       id="rect3268"
       height="10"
       x="325"
       y="250"
       width="10"
       gameObjType="player" />
    <rect
       gameObjType="goal"
       style="fill:#d9d987;fill-opacity:1;stroke:none"
       id="rect3276"
       height="10"
       x="420"
       y="250"
       width="10" />
    <rect
       gameObjType="player"
       width="10"
       y="250"
       x="450"
       height="10"
       id="rect3278"
       style="fill:#00ff00;fill-opacity:1;stroke:none" />
    <rect
       gameObjType="key"
       style="fill:#00a3ff;fill-opacity:1;stroke:none"
       id="rect4361"
       height="10"
       x="380"
       y="975"
       width="10" />
  </g>
</svg>
