<?xml version="1.0" encoding="UTF-8" standalone="no"?>
<!-- Created with Inkscape (http://www.inkscape.org/) -->

<svg
   xmlns:osb="http://www.openswatchbook.org/uri/2009/osb"
   xmlns:dc="http://purl.org/dc/elements/1.1/"
   xmlns:cc="http://creativecommons.org/ns#"
   xmlns:rdf="http://www.w3.org/1999/02/22-rdf-syntax-ns#"
   xmlns:svg="http://www.w3.org/2000/svg"
   xmlns="http://www.w3.org/2000/svg"
   xmlns:sodipodi="http://sodipodi.sourceforge.net/DTD/sodipodi-0.dtd"
   xmlns:inkscape="http://www.inkscape.org/namespaces/inkscape"
   width="200"
   height="200"
   id="svg2"
   version="1.1"
   inkscape:version="0.48.2 r9819"
   sodipodi:docname="levels.svg"
   inkscape:export-filename="/Users/stevesan84/reflect_git/svg/levels.png"
   inkscape:export-xdpi="200.07483"
   inkscape:export-ydpi="200.07483">
  <defs
     id="defs4">
    <linearGradient
       id="linearGradient4006"
       osb:paint="solid">
      <stop
         style="stop-color:#000000;stop-opacity:1;"
         offset="0"
         id="stop4008" />
    </linearGradient>
  </defs>
  <sodipodi:namedview
     id="base"
     pagecolor="#ffffff"
     bordercolor="#666666"
     borderopacity="1.0"
     inkscape:pageopacity="0.0"
     inkscape:pageshadow="2"
     inkscape:zoom="4"
     inkscape:cx="628.22106"
     inkscape:cy="-539.70495"
     inkscape:document-units="px"
     inkscape:current-layer="layer2"
     showgrid="true"
     inkscape:window-width="1276"
     inkscape:window-height="756"
     inkscape:window-x="14"
     inkscape:window-y="0"
     inkscape:window-maximized="0"
     inkscape:snap-global="true"
     showguides="true"
     inkscape:guide-bbox="true">
    <inkscape:grid
       type="xygrid"
       id="grid4876"
       empspacing="4"
       visible="true"
       enabled="true"
       snapvisiblegridlinesonly="true"
       spacingx="5px"
       spacingy="5px" />
  </sodipodi:namedview>
  <metadata
     id="metadata7">
    <rdf:RDF>
      <cc:Work
         rdf:about="">
        <dc:format>image/svg+xml</dc:format>
        <dc:type
           rdf:resource="http://purl.org/dc/dcmitype/StillImage" />
        <dc:title></dc:title>
      </cc:Work>
    </rdf:RDF>
  </metadata>
  <g
     inkscape:label="level1"
     inkscape:groupmode="layer"
     id="layer1">
    <rect
       maxReflections="1"
       gameObjType="levelArea"
       y="320"
       x="240"
       height="99.999977"
       width="99.999977"
       id="rect3310"
       style="fill:#000000;fill-opacity:1;stroke:none" />
    <rect
       style="fill:#000000;fill-opacity:1;stroke:none"
       id="rect3351"
       width="99.999977"
       height="99.999977"
       x="0"
       y="680"
       gameObjType="levelArea"
       maxReflections="2" />
    <rect
       maxReflections="2"
       gameObjType="levelArea"
       y="680"
       x="120"
       height="99.999977"
       width="99.999977"
       id="rect3321"
       style="fill:#000000;fill-opacity:1;stroke:none" />
    <rect
       maxReflections="1"
       style="fill:#000000;fill-opacity:1;stroke:none"
       id="rect5683"
       width="100.00001"
       height="99.999977"
       x="120"
       y="800"
       gameObjType="levelArea" />
    <rect
       gameObjType="levelArea"
       y="800"
       x="0"
       height="99.999977"
       width="100"
       id="rect4451-2"
       style="fill:#000000;fill-opacity:1;stroke:none"
       maxReflections="0" />
    <rect
       gameObjType="levelArea"
       y="440"
       x="120"
       height="99.999977"
       width="100.00001"
       id="rect4451"
       style="fill:#000000;fill-opacity:1;stroke:none"
       maxReflections="2" />
    <rect
       gameObjType="levelArea"
       y="560"
       x="720"
       height="99.999977"
       width="100.00001"
       id="rect4327"
       style="fill:#000000;fill-opacity:1;stroke:none"
       maxReflections="2" />
    <rect
       style="fill:#000000;fill-opacity:1;stroke:none"
       id="rect4250"
       width="100"
       height="99.999977"
       x="240"
       y="560"
       gameObjType="levelArea"
       maxReflections="2" />
    <rect
       gameObjType="levelArea"
       y="560"
       x="120"
       height="99.999977"
       width="99.999977"
       id="rect3451"
       style="fill:#000000;fill-opacity:1;stroke:none"
       maxReflections="2" />
    <rect
       maxReflections="0"
       style="fill:#000000;fill-opacity:1;stroke:none"
       id="rect5570"
       width="100.00001"
       height="99.999977"
       x="0"
       y="560"
       gameObjType="levelArea" />
    <rect
       gameObjType="levelArea"
       y="560"
       x="600"
       height="99.999977"
       width="100"
       id="rect3125"
       style="fill:#000000;fill-opacity:1;stroke:none"
       maxReflections="1" />
    <rect
       style="fill:#000000;fill-opacity:1;stroke:none"
       id="rect5029"
       width="100"
       height="99.999985"
       x="0"
       y="440"
       gameObjType="levelArea"
       maxReflections="2" />
    <rect
       style="fill:#000000;fill-opacity:1;stroke:none"
       id="rect4724"
       width="99.999985"
       height="99.999985"
       x="120"
       y="320"
       gameObjType="levelArea"
       maxReflections="1" />
    <rect
       style="fill:#000000;fill-opacity:1;stroke:none"
       id="rect4638"
       width="100"
       height="99.999985"
       x="0"
       y="320"
       gameObjType="levelArea"
       maxReflections="1" />
    <rect
       gameObjType="levelArea"
       y="440"
       x="240"
       height="99.999985"
       width="100"
       id="rect4570"
       style="fill:#000000;fill-opacity:1;stroke:none"
       maxReflections="2" />
    <rect
       style="fill:#000000;fill-opacity:1;stroke:none"
       id="area3"
       width="99.999977"
       height="99.999977"
       x="480"
       y="560"
       gameObjType="levelArea"
       maxReflections="1" />
    <rect
       gameObjType="levelArea"
       y="200"
       x="600"
       height="99.999992"
       width="99.999985"
       id="area2"
       style="fill:#000000;fill-opacity:1;stroke:none"
       maxReflections="1" />
    <rect
       style="fill:#000000;fill-opacity:1;stroke:none"
       id="area0"
       width="100"
       height="99.999985"
       x="240"
       y="200"
       gameObjType="levelArea"
       maxReflections="1" />
    <rect
       gameObjType="levelArea"
       y="200"
       x="0"
       height="99.999985"
       width="100"
       id="rect4480"
       style="fill:#000000;fill-opacity:1;stroke:none"
       maxReflections="0" />
    <path
       style="fill:#ffffff;fill-opacity:1;stroke:none"
       d="m 93.42605,829.8713 -21.71303,32.3622 -15,0 0,-10 -13.30506,0 0.0181,10 L 5,862.2335 5,830 c 29.99834,-0.2888 58.42644,-0.1287 88.42605,-0.1287 z"
       id="path3236"
       inkscape:connector-curvature="0"
       gameObjType="levelGeo"
       sodipodi:nodetypes="ccccccccc" />
    <path
       style="fill:#ffffff;fill-opacity:1;stroke:none"
       d="m 20,477.36221 20,0 0,15.6375 -20,0 z"
       id="path5035"
       gameObjType="levelGeo"
       inkscape:connector-curvature="0" />
    <path
       style="fill:#ffffff;fill-opacity:1;stroke:none"
       d="m 20,235 60,0 0,25 -20,0 0,-10 -20,0 0,10 -20,0 z"
       id="path4482"
       gameObjType="levelGeo"
       inkscape:connector-curvature="0"
       sodipodi:nodetypes="ccccccccc" />
    <path
       style="fill:#ffffff;fill-opacity:1;stroke:none"
       d="m 625,225 50,0 0,15 -50,0 z"
       id="path4103"
       gameObjType="levelGeo"
       inkscape:connector-curvature="0" />
    <path
       style="fill:#ffffff;fill-opacity:1;stroke:none"
       d="m 510,590 40,0 0,40 -40,0 z"
       id="rect3911"
       gameObjType="levelGeo"
       inkscape:connector-curvature="0" />
    <path
       sodipodi:nodetypes="ccccccc"
       inkscape:connector-curvature="0"
       gameObjType="levelGeo"
       id="path4526"
       d="m 260,235 40,0 0,15 -20,0 0,10 -20,0 z"
       style="fill:#ffffff;fill-opacity:1;stroke:none" />
    <path
       style="fill:#ffffff;fill-opacity:1;stroke:none"
       d="m 130,345 77.8125,0 0,15.6562 -18.9375,0 0,39.75 -41.375,0 0,-39.75 -17.5,0 z"
       id="path4726"
       gameObjType="levelGeo"
       inkscape:connector-curvature="0"
       sodipodi:nodetypes="ccccccccc" />
    <path
       style="fill:#ffffff;fill-opacity:1;stroke:none"
       d="m 675,585 0,30 -10,0 0,20 -40,0 0,-50 z"
       id="path3135"
       inkscape:connector-curvature="0"
       sodipodi:nodetypes="ccccccc"
       gameObjType="levelGeo" />
    <path
       inkscape:connector-curvature="0"
       gameObjType="levelGeo"
       id="path3457"
       d="m 145,580 30,0 0,30 -30,0 z"
       style="fill:#ffffff;fill-opacity:1;stroke:none" />
    <path
       style="fill:#ffffff;fill-opacity:1;stroke:none"
       d="m 245,595 15.42881,0 L 295,610 295,625 260.42881,610 245,610 z"
       id="path4256"
       gameObjType="levelGeo"
       inkscape:connector-curvature="0"
       sodipodi:nodetypes="ccccccc" />
    <path
       inkscape:connector-curvature="0"
       gameObjType="levelGeo"
       id="path4333"
       d="m 760,574.99998 40,0 0,40 -40,0 z"
       style="fill:#ffffff;fill-opacity:1;stroke:none" />
    <path
       sodipodi:nodetypes="ccccccc"
       inkscape:connector-curvature="0"
       gameObjType="levelGeo"
       id="path4453"
       d="m 130,465 45,0 0.25,55 -25.25,0 0,-40 -20,0 z"
       style="fill:#ffffff;fill-opacity:1;stroke:none" />
    <path
       style="fill:#ffffff;fill-opacity:1;stroke:none"
       d="m 250,460 45.21708,0 0,15 -25.21708,0 0,25 -20,0 z"
       id="path4576"
       gameObjType="levelGeo"
       inkscape:connector-curvature="0"
       sodipodi:nodetypes="ccccccc" />
    <path
       inkscape:connector-curvature="0"
       gameObjType="levelGeo"
       id="path4644"
       d="m 10,340 20.28436,0 0,32.4641 29.43128,0 0,-32.4641 30.28436,0 0,40 -80,0 z"
       style="fill:#ffffff;fill-opacity:1;stroke:none"
       sodipodi:nodetypes="ccccccccc" />
    <rect
       width="10"
       y="847.23352"
       x="6.7130127"
       height="10"
       id="rect4457-9"
       style="fill:#ffff00;fill-opacity:1;stroke:none;display:inline"
       gameObjType="goal" />
    <path
       style="fill:#ffffff;fill-opacity:1;stroke:none"
       d="m 10,585 80,0 0,30 -80,0 z"
       id="path5572"
       gameObjType="levelGeo"
       inkscape:connector-curvature="0" />
    <rect
       gameObjType="player"
       width="10"
       y="847.23352"
       x="31.713013"
       height="10"
       id="rect4455-9"
       style="fill:#00ff00;fill-opacity:1;stroke:none;display:inline" />
    <path
       inkscape:connector-curvature="0"
       gameObjType="levelGeo"
       id="path5823"
       d="m 134.52063,816.0468 20,0 0,15.6375 -20,0 z"
       style="fill:#ffffff;fill-opacity:1;stroke:none" />
    <path
       style="fill:#ffffff;fill-opacity:1;stroke:none"
       d="m 134.52063,851.0468 70,0 0,15 -70,0 z"
       id="path5825"
       gameObjType="levelGeo"
       inkscape:connector-curvature="0" />
    <rect
       gameObjType="goal"
       style="fill:#ffff00;fill-opacity:1;stroke:none;display:inline"
       id="rect5687"
       height="10"
       x="194.52063"
       y="856.04675"
       width="10" />
    <rect
       style="fill:#00ff00;fill-opacity:1;stroke:none;display:inline"
       id="rect5689"
       height="10"
       x="134.52063"
       y="856.04675"
       width="10"
       gameObjType="player" />
    <path
       inkscape:connector-curvature="0"
       gameObjType="levelGeo"
       id="path3323"
       d="m 135,710 40,0 0,40 -20,0 0,10 -20,0 z"
       style="fill:#ffffff;fill-opacity:1;stroke:none"
       sodipodi:nodetypes="ccccccc" />
    <path
       style="fill:#ffffff;fill-opacity:1;stroke:none"
       d="m 15,710 40,0 0,40 -40,0 z"
       id="path3353"
       gameObjType="levelGeo"
       inkscape:connector-curvature="0" />
    <path
       inkscape:connector-curvature="0"
       gameObjType="levelGeo"
       id="path3312"
       d="m 250,350 80,0 0,40 -80,0 z"
       style="fill:#ffffff;fill-opacity:1;stroke:none"
       sodipodi:nodetypes="ccccc" />
    <rect
       gameObjType="levelArea"
       y="800"
       x="360"
       height="99.999977"
       width="100.00001"
       id="rect3244"
       style="fill:#000000;fill-opacity:1;stroke:none"
       maxReflections="1" />
    <path
       inkscape:connector-curvature="0"
       gameObjType="levelGeo"
       id="path3248"
       d="m 400,840 40,0 0,20 -20,0 0,20 -20,0 z"
       style="fill:#ffffff;fill-opacity:1;stroke:none"
       sodipodi:nodetypes="ccccccc" />
    <rect
       width="10"
       y="850"
       x="430"
       height="10"
       id="rect3250"
       style="fill:#ffff00;fill-opacity:1;stroke:none;display:inline"
       gameObjType="goal" />
    <rect
       gameObjType="player"
       width="10"
       y="850"
       x="420"
       height="10"
       id="rect3252"
       style="fill:#00ff00;fill-opacity:1;stroke:none;display:inline" />
    <path
       style="fill:#ffffff;fill-opacity:1;stroke:none"
       d="m 400,815 10,0 0,15 -10,0 z"
       id="path3305"
       gameObjType="levelGeo"
       inkscape:connector-curvature="0" />
    <rect
       gameObjType="levelArea"
       y="800"
       x="240"
       height="99.999977"
       width="100.00001"
       id="rect3556"
       style="fill:#000000;fill-opacity:1;stroke:none"
       maxReflections="1" />
    <path
       sodipodi:nodetypes="ccccccc"
       style="fill:#ffffff;fill-opacity:1;stroke:none"
       d="m 270,820 40,0 0,20 -20,0 0,40 -20,0 z"
       id="path3568"
       gameObjType="levelGeo"
       inkscape:connector-curvature="0" />
    <rect
       width="10"
       y="870"
       x="270"
       height="10"
       id="rect3562"
       style="fill:#ffff00;fill-opacity:1;stroke:none;display:inline"
       gameObjType="goal" />
    <rect
       gameObjType="player"
       width="10"
       y="870"
       x="280"
       height="10"
       id="rect3564"
       style="fill:#00ff00;fill-opacity:1;stroke:none;display:inline" />
    <rect
       maxReflections="1"
       style="fill:#000000;fill-opacity:1;stroke:none"
       id="rect3260"
       width="100.00001"
       height="99.999977"
       x="480"
       y="200"
       gameObjType="levelArea" />
    <path
       inkscape:connector-curvature="0"
       gameObjType="levelGeo"
       id="path3262"
       d="m 540,240 40,0 0,20 -40,0 z"
       style="fill:#ffffff;fill-opacity:1;stroke:none" />
    <path
       style="fill:#ffffff;fill-opacity:1;stroke:none"
       d="m 480,240 40,0 0,20 -40,0 z"
       id="path3264"
       gameObjType="levelGeo"
       inkscape:connector-curvature="0" />
    <rect
       gameObjType="levelArea"
       y="200"
       x="360"
       height="99.999977"
       width="100.00001"
       id="rect3270"
       style="fill:#000000;fill-opacity:1;stroke:none"
       maxReflections="1" />
    <path
       style="fill:#ffffff;fill-opacity:1;stroke:none"
       d="m 450,240 10,0 0,20 -10,0 z"
       id="path3272"
       gameObjType="levelGeo"
       inkscape:connector-curvature="0" />
    <path
       inkscape:connector-curvature="0"
       gameObjType="levelGeo"
       id="path3274"
       d="m 360,240 40,0 0,20 -40,0 z"
       style="fill:#ffffff;fill-opacity:1;stroke:none" />
    <path
       inkscape:connector-curvature="0"
       gameObjType="levelGeo"
       id="path3280"
       d="m 420,240 10,0 0,20 -10,0 z"
       style="fill:#ffffff;fill-opacity:1;stroke:none" />
    <rect
       gameObjType="levelArea"
       y="920"
       x="0"
       height="99.999977"
       width="100.00001"
       id="rect4204"
       style="fill:#000000;fill-opacity:1;stroke:none"
       maxReflections="1" />
    <path
       inkscape:connector-curvature="0"
       gameObjType="levelGeo"
       id="path4208"
       d="m 20,965 60,0 0,15 -60,0 z"
       style="fill:#ffffff;fill-opacity:1;stroke:none"
       sodipodi:nodetypes="ccccc" />
    <rect
       width="10"
       y="970"
       x="70"
       height="10"
       id="rect4210"
       style="fill:#ffff00;fill-opacity:1;stroke:none;display:inline"
       gameObjType="goal" />
    <rect
       gameObjType="player"
       width="10"
       y="970"
       x="20"
       height="10"
       id="rect4212"
       style="fill:#00ff00;fill-opacity:1;stroke:none;display:inline" />
    <path
       sodipodi:nodetypes="ccccc"
       inkscape:connector-curvature="0"
       gameObjType="rockGeo"
       id="path3415"
       d="m 40,970 20,0 0,10 -20,0 z"
       style="fill:#ae550b;fill-opacity:1;stroke:none" />
    <rect
       maxReflections="2"
       style="fill:#000000;fill-opacity:1;stroke:none"
       id="rect4255"
       width="100.00001"
       height="99.999977"
       x="120"
       y="920"
       gameObjType="levelArea" />
    <path
       sodipodi:nodetypes="ccccc"
       style="fill:#ffffff;fill-opacity:1;stroke:none"
       d="m 140,940 40,0 0,20 -40,0 z"
       id="path4257"
       gameObjType="levelGeo"
       inkscape:connector-curvature="0" />
    <rect
       gameObjType="goal"
       style="fill:#ffff00;fill-opacity:1;stroke:none;display:inline"
       id="rect4259"
       height="10"
       x="145"
       y="985"
       width="10" />
    <rect
       style="fill:#00ff00;fill-opacity:1;stroke:none;display:inline"
       id="rect4261"
       height="10"
       x="145"
       y="950"
       width="10"
       gameObjType="player" />
    <path
       style="fill:#ae550b;fill-opacity:1;stroke:none"
       d="m 140,960 20,0 0,20 -20,0 z"
       id="path4263"
       gameObjType="rockGeo"
       inkscape:connector-curvature="0"
       sodipodi:nodetypes="ccccc" />
    <rect
       gameObjType="levelArea"
       y="920"
       x="480"
       height="99.999977"
       width="100.00001"
       id="rect4303"
       style="fill:#000000;fill-opacity:1;stroke:none"
       maxReflections="2" />
    <path
       inkscape:connector-curvature="0"
       gameObjType="levelGeo"
       id="path4305"
       d="m 535,960 10.00001,9.99998 L 520,995 l -10,0 0,-10 z"
       style="fill:#ffffff;fill-opacity:1;stroke:none"
       sodipodi:nodetypes="cccccc" />
    <rect
       width="10"
       y="985"
       x="510"
       height="10"
       id="rect4307"
       style="fill:#ffff00;fill-opacity:1;stroke:none;display:inline"
       gameObjType="goal" />
    <rect
       gameObjType="player"
       width="10"
       y="980"
       x="515"
       height="10"
       id="rect4309"
       style="fill:#00ff00;fill-opacity:1;stroke:none;display:inline" />
    <rect
       maxReflections="1"
       style="fill:#000000;fill-opacity:1;stroke:none"
       id="rect4351"
       width="100.00001"
       height="99.999977"
       x="360"
       y="920"
       gameObjType="levelArea" />
    <path
       sodipodi:nodetypes="ccccc"
       style="fill:#ffffff;fill-opacity:1;stroke:none"
       d="m 400,975 50,0 0,25 -50,0 z"
       id="path4353"
       gameObjType="levelGeo"
       inkscape:connector-curvature="0" />
    <rect
       gameObjType="goal"
       style="fill:#ffff00;fill-opacity:1;stroke:none;display:inline"
       id="rect4355"
       height="10"
       x="440"
       y="990"
       width="10" />
    <rect
       style="fill:#00ff00;fill-opacity:1;stroke:none;display:inline"
       id="rect4357"
       height="10"
       x="420"
       y="990"
       width="10"
       gameObjType="player" />
    <path
       style="fill:#ae550b;fill-opacity:1;stroke:none"
       d="m 400,990 10,0 0,10 -10,0 z"
       id="path4359"
       gameObjType="rockGeo"
       inkscape:connector-curvature="0"
       sodipodi:nodetypes="ccccc" />
    <rect
       maxReflections="1"
       style="fill:#000000;fill-opacity:1;stroke:none"
       id="rect3324"
       width="100.00001"
       height="99.999977"
       x="240"
       y="920"
       gameObjType="levelArea" />
    <rect
       gameObjType="goal"
       style="fill:#ffff00;fill-opacity:1;stroke:none;display:inline"
       id="rect3328"
       height="10"
       x="320"
       y="950"
       width="10" />
    <path
       style="fill:#ffffff;fill-opacity:1;stroke:none"
       d="m 245,935 45,0 0.25,65 -30.25,0 0,-40 -15,0 z"
       id="path3336"
       gameObjType="levelGeo"
       inkscape:connector-curvature="0"
       sodipodi:nodetypes="ccccccc" />
    <path
       sodipodi:nodetypes="ccccc"
       inkscape:connector-curvature="0"
       gameObjType="rockGeo"
       id="path3334"
       d="m 280,965 20,0 0,20 -20,0 z"
       style="fill:#ae550b;fill-opacity:1;stroke:none" />
    <rect
       style="fill:#00ff00;fill-opacity:1;stroke:none;display:inline"
       id="rect3330"
       height="10"
       x="250"
       y="950"
       width="10"
       gameObjType="player" />
    <rect
       style="fill:#000000;fill-opacity:1;stroke:none"
       id="rect3358"
       width="99.999977"
       height="99.999977"
       x="240"
       y="680"
       gameObjType="levelArea"
       maxReflections="1" />
    <path
       sodipodi:nodetypes="ccccccccc"
       style="fill:#ffffff;fill-opacity:1;stroke:none"
       d="m 250,700 80,0 0,65 -80,0 0,-40 40,0 0,-10 -40,0 z"
       id="path3372"
       gameObjType="levelGeo"
       inkscape:connector-curvature="0" />
    <rect
       maxReflections="1"
       gameObjType="levelArea"
       y="680"
       x="360"
       height="99.999977"
       width="99.999977"
       id="rect3507"
       style="fill:#000000;fill-opacity:1;stroke:none" />
    <path
       inkscape:connector-curvature="0"
       gameObjType="levelGeo"
       id="path3509"
       d="m 370,715 80,0 0,45 -40,0 0,-30 -40,0 z"
       style="fill:#ffffff;fill-opacity:1;stroke:none"
       sodipodi:nodetypes="ccccccc" />
    <rect
       style="fill:#000000;fill-opacity:1;stroke:none"
       id="rect3745"
       width="99.999977"
       height="99.999977"
       x="480"
       y="680"
       gameObjType="levelArea"
       maxReflections="1" />
    <path
       sodipodi:nodetypes="ccccccc"
       style="fill:#ffffff;fill-opacity:1;stroke:none"
       d="m 490,700 80,0 0,60 -40,0 0,-40 -40,0 z"
       id="path3747"
       gameObjType="levelGeo"
       inkscape:connector-curvature="0" />
    <rect
       maxReflections="2"
       style="fill:#000000;fill-opacity:1;stroke:none"
       id="rect3368"
       width="100.00001"
       height="99.999977"
       x="600"
       y="920"
       gameObjType="levelArea" />
    <path
       sodipodi:nodetypes="ccccc"
       style="fill:#ffffff;fill-opacity:1;stroke:none"
       d="m 655,940 40,0 0,60 -40,0 z"
       id="path3370"
       gameObjType="levelGeo"
       inkscape:connector-curvature="0" />
    <rect
       gameObjType="goal"
       style="fill:#ffff00;fill-opacity:1;stroke:none;display:inline"
       id="rect3372"
       height="10"
       x="680"
       y="945"
       width="10" />
    <rect
       style="fill:#00ff00;fill-opacity:1;stroke:none;display:inline"
       id="rect3374"
       height="10"
       x="680"
       y="990"
       width="10"
       gameObjType="player" />
    <path
       style="fill:#ae550b;fill-opacity:1;stroke:none"
       d="m 640,990 10,0 0,10 -30,0 0,-30 10,0 0,10 10,0 z"
       id="path3376"
       gameObjType="rockGeo"
       inkscape:connector-curvature="0"
       sodipodi:nodetypes="ccccccccc" />
    <path
       inkscape:connector-curvature="0"
       gameObjType="levelGeo"
       id="path3378"
       d="m 550.00001,945 10,0 0,9.99998 -10,0 z"
       style="fill:#ffffff;fill-opacity:1;stroke:none"
       sodipodi:nodetypes="ccccc" />
    <path
       sodipodi:nodetypes="ccccc"
       inkscape:connector-curvature="0"
       gameObjType="rockGeo"
       id="path3382"
       d="m 525.85787,969.99998 7.07107,-7.07107 7.07107,7.07107 -7.07107,7.07107 z"
       style="fill:#ae550b;fill-opacity:1;stroke:none" />
    <rect
       maxReflections="2"
       style="fill:#000000;fill-opacity:1;stroke:none"
       id="rect3574"
       width="100"
       height="99.999977"
       x="360"
       y="560"
       gameObjType="levelArea" />
    <path
       gameObjType="levelGeo"
       sodipodi:nodetypes="ccccccccc"
       inkscape:connector-curvature="0"
       id="path3576"
       d="m 400,585 0,35 -15,-0.005 0,-10 -10,0 0,-9.99541 -10,-0.005 0,-15 z"
       style="fill:#ffffff;fill-opacity:1;stroke:none" />
    <rect
       gameObjType="levelArea"
       y="200"
       x="120"
       height="99.999985"
       width="100"
       id="rect4480-5"
       style="fill:#000000;fill-opacity:1;stroke:none"
       maxReflections="0" />
    <path
       style="fill:#ffffff;fill-opacity:1;stroke:none"
       d="m 140,235 60,0 0,25 -20,0 0,20 -20,0 0,-20 -20,0 z"
       id="path4482-1"
       gameObjType="levelGeo"
       inkscape:connector-curvature="0"
       sodipodi:nodetypes="ccccccccc" />
    <rect
       width="10"
       y="235"
       x="190"
       height="10"
       id="rect4486-2"
       style="fill:#ffff00;fill-opacity:1;stroke:none;display:inline"
       gameObjType="goal" />
    <rect
       style="fill:#00ff00;fill-opacity:1;stroke:none;display:inline"
       id="rect4484-6"
       height="10"
       x="145"
       y="250"
       width="10"
       gameObjType="player" />
    <rect
       maxReflections="2"
       style="fill:#000000;fill-opacity:1;stroke:none"
       id="rect3736"
       width="100.00001"
       height="99.999977"
       x="600"
       y="680"
       gameObjType="levelArea" />
    <path
       style="fill:#ffffff;fill-opacity:1;stroke:none"
       d="m 630,680 10,0 0,10 10,0 0,10 10,0 0,10 10,0 0,40 -40,0 z"
       id="path3738"
       gameObjType="levelGeo"
       inkscape:connector-curvature="0"
       sodipodi:nodetypes="ccccccccccc" />
    <rect
       maxReflections="2"
       style="fill:#000000;fill-opacity:1;stroke:none"
       id="rect4034"
       width="100.00001"
       height="99.999977"
       x="720"
       y="200"
       gameObjType="levelArea" />
    <path
       style="fill:#ffffff;fill-opacity:1;stroke:none"
       d="m 740,220 40,0 0,60 -20,0 0,-40 -20,0 z"
       id="path4036"
       gameObjType="levelGeo"
       inkscape:connector-curvature="0"
       sodipodi:nodetypes="ccccccc" />
  </g>
  <g
     inkscape:groupmode="layer"
     id="layer2"
     inkscape:label="gameObjects"
     style="display:inline">
    <rect
       width="10"
       y="235"
       x="70"
       height="10"
       id="rect4486"
       style="fill:#ffff00;fill-opacity:1;stroke:none"
       gameObjType="goal" />
    <rect
       gameObjType="goal"
       style="fill:#ffff00;fill-opacity:1;stroke:none"
       id="rect4530"
       height="10"
       x="310"
       y="235"
       width="10" />
    <rect
       gameObjType="goal"
       style="fill:#ffff00;fill-opacity:1;stroke:none"
       id="rect4101"
       height="10"
       x="660"
       y="265"
       width="10" />
    <rect
       width="10"
       y="595"
       x="535"
       height="10"
       id="rect3846-0"
       style="fill:#ffff00;fill-opacity:1;stroke:none"
       gameObjType="goal" />
    <rect
       gameObjType="goal"
       style="fill:#ffff00;fill-opacity:1;stroke:none"
       id="rect4574"
       height="10"
       x="315"
       y="490"
       width="10" />
    <rect
       width="10"
       y="365"
       x="80"
       height="10"
       id="rect4642"
       style="fill:#ffff00;fill-opacity:1;stroke:none"
       gameObjType="goal" />
    <rect
       gameObjType="goal"
       style="fill:#ffff00;fill-opacity:1;stroke:none"
       id="rect4809"
       height="10"
       x="195.17615"
       y="347.99109"
       width="10" />
    <rect
       width="10"
       y="470"
       x="195"
       height="10"
       id="rect4457"
       style="fill:#ffff00;fill-opacity:1;stroke:none"
       gameObjType="goal" />
    <rect
       gameObjType="goal"
       style="fill:#ffff00;fill-opacity:1;stroke:none"
       id="rect4329"
       height="10"
       x="785"
       y="590"
       width="10" />
    <rect
       width="10"
       y="600"
       x="325"
       height="10"
       id="rect4252"
       style="fill:#ffff00;fill-opacity:1;stroke:none"
       gameObjType="goal" />
    <rect
       gameObjType="goal"
       style="fill:#ffff00;fill-opacity:1;stroke:none"
       id="rect3453"
       height="10"
       x="185"
       y="625"
       width="10" />
    <rect
       gameObjType="goal"
       style="fill:#ffff00;fill-opacity:1;stroke:none"
       id="rect3127"
       height="10"
       x="625"
       y="625"
       width="10" />
    <rect
       width="10"
       y="482.36218"
       x="75"
       height="10"
       id="rect5031"
       style="fill:#ffff00;fill-opacity:1;stroke:none"
       gameObjType="goal" />
    <rect
       width="10"
       y="635"
       x="735"
       height="10"
       id="rect4335"
       style="fill:#00a3ff;fill-opacity:1;stroke:none"
       gameObjType="key" />
    <rect
       gameObjType="key"
       style="fill:#00a3ff;fill-opacity:1;stroke:none"
       id="rect4258"
       height="10"
       x="290"
       y="580"
       width="10" />
    <rect
       width="10"
       y="600"
       x="185"
       height="10"
       id="rect3461"
       style="fill:#00a3ff;fill-opacity:1;stroke:none"
       gameObjType="key" />
    <rect
       gameObjType="player"
       width="10"
       y="470"
       x="135"
       height="10"
       id="rect4455"
       style="fill:#00ff00;fill-opacity:1;stroke:none" />
    <rect
       gameObjType="player"
       width="10"
       y="605"
       x="765"
       height="10"
       id="rect4331"
       style="fill:#00ff00;fill-opacity:1;stroke:none" />
    <rect
       style="fill:#00ff00;fill-opacity:1;stroke:none"
       id="rect4254"
       height="10"
       x="250"
       y="600"
       width="10"
       gameObjType="player" />
    <rect
       gameObjType="player"
       width="10"
       y="600"
       x="155"
       height="10"
       id="rect3455"
       style="fill:#00ff00;fill-opacity:1;stroke:none" />
    <rect
       gameObjType="player"
       width="10"
       y="625"
       x="640"
       height="10"
       id="rect3129"
       style="fill:#00ff00;fill-opacity:1;stroke:none" />
    <rect
       style="fill:#00ff00;fill-opacity:1;stroke:none"
       id="rect5033"
       height="10"
       x="25"
       y="482.36218"
       width="10"
       gameObjType="player" />
    <rect
       style="fill:#00ff00;fill-opacity:1;stroke:none"
       id="rect4728"
       height="10"
       x="134.48669"
       y="348.13049"
       width="10"
       gameObjType="player" />
    <rect
       style="fill:#00ff00;fill-opacity:1;stroke:none"
       id="rect4640"
       height="10"
       x="15"
       y="370"
       width="10"
       gameObjType="player" />
    <rect
       gameObjType="player"
       width="10"
       y="490"
       x="255"
       height="10"
       id="rect4572"
       style="fill:#00ff00;fill-opacity:1;stroke:none" />
    <rect
       gameObjType="player"
       width="10"
       y="250"
       x="265"
       height="10"
       id="rect4528"
       style="fill:#00ff00;fill-opacity:1;stroke:none" />
    <rect
       style="fill:#00ff00;fill-opacity:1;stroke:none"
       id="rect4484"
       height="10"
       x="25"
       y="250"
       width="10"
       gameObjType="player" />
    <rect
       gameObjType="player"
       width="10"
       y="230"
       x="630"
       height="10"
       id="rect4409"
       style="fill:#00ff00;fill-opacity:1;stroke:none" />
    <rect
       style="fill:#00ff00;fill-opacity:1;stroke:none"
       id="rect3844-3"
       height="10"
       x="520"
       y="620"
       width="10"
       gameObjType="player" />
    <rect
       gameObjType="ballKey"
       style="fill:#ff3b00;fill-opacity:1;stroke:none"
       id="rect5473"
       height="10"
       x="71.713013"
       y="832.23352"
       width="10" />
    <rect
       width="10"
       y="602.36218"
       x="45"
       height="10"
       id="rect5574"
       style="fill:#ffff00;fill-opacity:1;stroke:none"
       gameObjType="goal" />
    <rect
       gameObjType="key"
       style="fill:#00a3ff;fill-opacity:1;stroke:none"
       id="rect5576"
       height="10"
       x="75"
       y="602.36218"
       width="10" />
    <rect
       style="fill:#00ff00;fill-opacity:1;stroke:none"
       id="rect5578"
       height="10"
       x="15"
       y="602.36218"
       width="10"
       gameObjType="player" />
    <rect
       width="10"
       y="820"
       x="140"
       height="10"
       id="rect5827"
       style="fill:#ff3b00;fill-opacity:1;stroke:none"
       gameObjType="ballKey" />
    <rect
       gameObjType="goal"
       style="fill:#ffff00;fill-opacity:1;stroke:none"
       id="rect3325"
       height="10"
       x="140"
       y="750"
       width="10" />
    <rect
       gameObjType="player"
       width="10"
       y="740"
       x="160"
       height="10"
       id="rect3327"
       style="fill:#00ff00;fill-opacity:1;stroke:none" />
    <rect
       width="10"
       y="750"
       x="205"
       height="10"
       id="rect3329"
       style="fill:#00a3ff;fill-opacity:1;stroke:none"
       gameObjType="key" />
    <rect
       width="10"
       y="715"
       x="5"
       height="10"
       id="rect3355"
       style="fill:#ffff00;fill-opacity:1;stroke:none"
       gameObjType="goal" />
    <rect
       style="fill:#00ff00;fill-opacity:1;stroke:none"
       id="rect3357"
       height="10"
       x="25"
       y="740"
       width="10"
       gameObjType="player" />
    <rect
       gameObjType="key"
       style="fill:#00a3ff;fill-opacity:1;stroke:none"
       id="rect3359"
       height="10"
       x="85"
       y="715"
       width="10" />
    <rect
       gameObjType="key"
       style="fill:#00a3ff;fill-opacity:1;stroke:none"
       id="rect3532"
       height="10"
       x="160"
       y="715"
       width="10" />
    <rect
       width="10"
       y="715"
       x="190"
       height="10"
       id="rect3232"
       style="fill:#00a3ff;fill-opacity:1;stroke:none"
       gameObjType="key" />
    <rect
       gameObjType="goal"
       style="fill:#ffff00;fill-opacity:1;stroke:none"
       id="rect3314"
       height="10"
       x="285"
       y="355"
       width="10" />
    <rect
       gameObjType="player"
       width="10"
       y="380"
       x="285"
       height="10"
       id="rect3316"
       style="fill:#00ff00;fill-opacity:1;stroke:none" />
    <rect
       gameObjType="key"
       style="fill:#00a3ff;fill-opacity:1;stroke:none"
       id="rect3318"
       height="10"
       x="550"
       y="610"
       width="10" />
    <rect
       gameObjType="ballKey"
       style="fill:#ff3b00;fill-opacity:1;stroke:none"
       id="rect3254"
       height="10"
       x="400"
       y="820"
       width="10" />
    <rect
       width="10"
       y="850"
       x="380"
       height="10"
       id="rect3535"
       style="fill:#00a3ff;fill-opacity:1;stroke:none"
       gameObjType="key" />
    <rect
       width="10"
       y="830"
       x="295"
       height="10"
       id="rect3570"
       style="fill:#ff3b00;fill-opacity:1;stroke:none"
       gameObjType="ballKey" />
    <rect
       width="10"
       y="250"
       x="485"
       height="10"
       id="rect3266"
       style="fill:#d9d987;fill-opacity:1;stroke:none"
       gameObjType="goal" />
    <rect
       style="fill:#00ff00;fill-opacity:1;stroke:none"
       id="rect3268"
       height="10"
       x="565"
       y="250"
       width="10"
       gameObjType="player" />
    <rect
       gameObjType="goal"
       style="fill:#d9d987;fill-opacity:1;stroke:none"
       id="rect3276"
       height="10"
       x="420"
       y="250"
       width="10" />
    <rect
       gameObjType="player"
       width="10"
       y="250"
       x="450"
       height="10"
       id="rect3278"
       style="fill:#00ff00;fill-opacity:1;stroke:none" />
    <rect
       gameObjType="key"
       style="fill:#00a3ff;fill-opacity:1;stroke:none"
       id="rect4361"
       height="10"
       x="380"
       y="955"
       width="10" />
    <rect
       width="10"
       y="755"
       x="310"
       height="10"
       id="rect3362"
       style="fill:#ffff00;fill-opacity:1;stroke:none"
       gameObjType="goal" />
    <rect
       style="fill:#00ff00;fill-opacity:1;stroke:none"
       id="rect3364"
       height="10"
       x="270"
       y="705"
       width="10"
       gameObjType="player" />
    <rect
       gameObjType="key"
       style="fill:#00a3ff;fill-opacity:1;stroke:none"
       id="rect3366"
       height="10"
       x="265"
       y="725"
       width="10" />
    <rect
       gameObjType="goal"
       style="fill:#ffff00;fill-opacity:1;stroke:none"
       id="rect3511"
       height="10"
       x="430"
       y="750"
       width="10" />
    <rect
       gameObjType="player"
       width="10"
       y="720"
       x="390"
       height="10"
       id="rect3513"
       style="fill:#00ff00;fill-opacity:1;stroke:none" />
    <rect
       width="10"
       y="710"
       x="430"
       height="10"
       id="rect3515"
       style="fill:#00a3ff;fill-opacity:1;stroke:none"
       gameObjType="key" />
    <rect
       width="10"
       y="750"
       x="550"
       height="10"
       id="rect3749"
       style="fill:#ffff00;fill-opacity:1;stroke:none"
       gameObjType="goal" />
    <rect
       style="fill:#00ff00;fill-opacity:1;stroke:none"
       id="rect3751"
       height="10"
       x="510"
       y="710"
       width="10"
       gameObjType="player" />
    <rect
       gameObjType="key"
       style="fill:#00a3ff;fill-opacity:1;stroke:none"
       id="rect3753"
       height="10"
       x="520"
       y="720"
       width="10" />
    <rect
       width="10"
       y="720"
       x="500"
       height="10"
       id="rect3755"
       style="fill:#00a3ff;fill-opacity:1;stroke:none"
       gameObjType="key" />
    <rect
       width="10"
       y="590"
       x="665"
       height="10"
       id="rect3442"
       style="fill:#00a3ff;fill-opacity:1;stroke:none"
       gameObjType="key" />
    <rect
       width="10"
       y="945"
       x="550"
       height="10"
       id="rect3380"
       style="fill:#ff3b00;fill-opacity:1;stroke:none"
       gameObjType="ballKey" />
    <rect
       width="10"
       y="590"
       x="445"
       height="10"
       id="rect3578"
       style="fill:#ffff00;fill-opacity:1;stroke:none"
       gameObjType="goal" />
    <rect
       style="fill:#00ff00;fill-opacity:1;stroke:none"
       id="rect3580"
       height="10"
       x="365"
       y="589.99542"
       width="10"
       gameObjType="player" />
    <rect
       gameObjType="key"
       style="fill:#00a3ff;fill-opacity:1;stroke:none"
       id="rect3582"
       height="10"
       x="405"
       y="630"
       width="10" />
    <rect
       gameObjType="goal"
       style="fill:#ffff00;fill-opacity:1;stroke:none"
       id="rect3740"
       height="10"
       x="690"
       y="740"
       width="10" />
    <rect
       style="fill:#00ff00;fill-opacity:1;stroke:none"
       id="rect3742"
       height="10"
       x="640"
       y="740"
       width="10"
       gameObjType="player" />
    <rect
       gameObjType="key"
       style="fill:#00a3ff;fill-opacity:1;stroke:none"
       id="rect3756"
       height="10"
       x="630"
       y="680"
       width="10" />
    <rect
       gameObjType="goal"
       style="fill:#ffff00;fill-opacity:1;stroke:none"
       id="rect4038"
       height="10"
       x="805"
       y="230"
       width="10" />
    <rect
       style="fill:#00ff00;fill-opacity:1;stroke:none"
       id="rect4040"
       height="10"
       x="740"
       y="230"
       width="10"
       gameObjType="player" />
  </g>
</svg>
