<?xml version="1.0" encoding="UTF-8" standalone="no"?>
<!-- Created with Inkscape (http://www.inkscape.org/) -->

<svg
   xmlns:osb="http://www.openswatchbook.org/uri/2009/osb"
   xmlns:dc="http://purl.org/dc/elements/1.1/"
   xmlns:cc="http://creativecommons.org/ns#"
   xmlns:rdf="http://www.w3.org/1999/02/22-rdf-syntax-ns#"
   xmlns:svg="http://www.w3.org/2000/svg"
   xmlns="http://www.w3.org/2000/svg"
   xmlns:sodipodi="http://sodipodi.sourceforge.net/DTD/sodipodi-0.dtd"
   xmlns:inkscape="http://www.inkscape.org/namespaces/inkscape"
   width="200"
   height="200"
   id="svg2"
   version="1.1"
   inkscape:version="0.48.2 r9819"
   sodipodi:docname="levels.svg"
   inkscape:export-filename="/Users/stevesan84/reflect_git/svg/levels.png"
   inkscape:export-xdpi="200.07483"
   inkscape:export-ydpi="200.07483">
  <defs
     id="defs4">
    <linearGradient
       id="linearGradient4006"
       osb:paint="solid">
      <stop
         style="stop-color:#000000;stop-opacity:1;"
         offset="0"
         id="stop4008" />
    </linearGradient>
  </defs>
  <sodipodi:namedview
     id="base"
     pagecolor="#ffffff"
     bordercolor="#666666"
     borderopacity="1.0"
     inkscape:pageopacity="0.0"
     inkscape:pageshadow="2"
     inkscape:zoom="2.5272733"
     inkscape:cx="478.3267"
     inkscape:cy="-1252.8953"
     inkscape:document-units="px"
     inkscape:current-layer="layer1"
     showgrid="true"
     inkscape:window-width="1276"
     inkscape:window-height="756"
     inkscape:window-x="7"
     inkscape:window-y="0"
     inkscape:window-maximized="0"
     inkscape:snap-global="true"
     showguides="true"
     inkscape:guide-bbox="true">
    <inkscape:grid
       type="xygrid"
       id="grid4876"
       empspacing="5"
       visible="true"
       enabled="true"
       snapvisiblegridlinesonly="true"
       spacingx="5px"
       spacingy="5px" />
  </sodipodi:namedview>
  <metadata
     id="metadata7">
    <rdf:RDF>
      <cc:Work
         rdf:about="">
        <dc:format>image/svg+xml</dc:format>
        <dc:type
           rdf:resource="http://purl.org/dc/dcmitype/StillImage" />
        <dc:title></dc:title>
      </cc:Work>
    </rdf:RDF>
  </metadata>
  <g
     inkscape:label="level1"
     inkscape:groupmode="layer"
     id="layer1">
    <rect
       gameObjType="levelArea"
       y="1125"
       x="325"
       height="99.999992"
       width="99.999985"
       id="area2"
       style="fill:#000000;fill-opacity:1;stroke:none"
       maxReflections="1" />
    <rect
       maxReflections="1"
       style="fill:#000000;fill-opacity:1;stroke:none"
       id="rect5683"
       width="109.99998"
       height="109.99998"
       x="-50"
       y="1612.3622"
       gameObjType="levelArea" />
    <rect
       gameObjType="levelArea"
       y="1490"
       x="475"
       height="109.99998"
       width="109.99998"
       id="rect4451-2"
       style="fill:#000000;fill-opacity:1;stroke:none"
       maxReflections="0" />
    <rect
       style="fill:#000000;fill-opacity:1;stroke:none"
       id="rect5029"
       width="100"
       height="99.999985"
       x="-50"
       y="1375"
       gameObjType="levelArea"
       maxReflections="2" />
    <rect
       gameObjType="levelArea"
       y="1125"
       x="-50"
       height="99.999985"
       width="100"
       id="rect4480"
       style="fill:#000000;fill-opacity:1;stroke:none"
       maxReflections="0" />
    <rect
       style="fill:#000000;fill-opacity:1;stroke:none"
       id="area0"
       width="100"
       height="99.999985"
       x="75"
       y="1125"
       gameObjType="levelArea"
       maxReflections="1" />
    <rect
       gameObjType="levelArea"
       y="1125"
       x="200"
       height="99.999977"
       width="100.00001"
       id="area1"
       style="fill:#000000;fill-opacity:1;stroke:none"
       maxReflections="1" />
    <rect
       style="fill:#000000;fill-opacity:1;stroke:none"
       id="area3"
       width="99.999977"
       height="99.999977"
       x="450"
       y="1125"
       gameObjType="levelArea"
       maxReflections="1" />
    <rect
       gameObjType="levelArea"
       y="1250"
       x="-50"
       height="99.999985"
       width="100"
       id="rect4570"
       style="fill:#000000;fill-opacity:1;stroke:none"
       maxReflections="1" />
    <rect
       style="fill:#000000;fill-opacity:1;stroke:none"
       id="rect4638"
       width="100"
       height="99.999985"
       x="75"
       y="1250"
       gameObjType="levelArea"
       maxReflections="1" />
    <rect
       style="fill:#000000;fill-opacity:1;stroke:none"
       id="rect4724"
       width="99.999985"
       height="99.999985"
       x="200"
       y="1250"
       gameObjType="levelArea"
       maxReflections="1" />
    <rect
       gameObjType="levelArea"
       y="1250"
       x="325"
       height="99.999977"
       width="100.00001"
       id="rect4868"
       style="fill:#000000;fill-opacity:1;stroke:none"
       maxReflections="1" />
    <rect
       gameObjType="levelArea"
       y="1250"
       x="450"
       height="99.999985"
       width="99.999985"
       id="rect4977"
       style="fill:#000000;fill-opacity:1;stroke:none"
       maxReflections="1" />
    <rect
       gameObjType="levelArea"
       y="1375"
       x="75"
       height="99.999977"
       width="100"
       id="rect3125"
       style="fill:#000000;fill-opacity:1;stroke:none"
       maxReflections="1" />
    <rect
       style="fill:#000000;fill-opacity:1;stroke:none"
       id="rect3422"
       width="99.999985"
       height="99.999985"
       x="200"
       y="1375"
       gameObjType="levelArea"
       maxReflections="1" />
    <path
       style="fill:#ffffff;stroke:none;stroke-width:1px;stroke-linecap:butt;stroke-linejoin:miter;stroke-opacity:1;fill-opacity:1"
       d="M 576.71303,1522.6378 555,1555 l -15,0 0,-10 -13.30506,0 0.0181,10 -38.42606,0 0,-32.2335 c 29.99834,-0.2888 58.42644,-0.1287 88.42605,-0.1287 z"
       id="path3236"
       inkscape:connector-curvature="0"
       gameObjType="levelGeo"
       sodipodi:nodetypes="ccccccccc" />
    <path
       style="fill:#ffffff;fill-opacity:1;stroke:none;stroke-width:0.58838409000000003;stroke-miterlimit:4;stroke-opacity:1"
       d="m -30,1412.3622 20,0 0,15.6375 -20,0 z"
       id="path5035"
       gameObjType="levelGeo"
       inkscape:connector-curvature="0" />
    <rect
       maxReflections="0"
       style="fill:#000000;fill-opacity:1;stroke:none"
       id="rect5570"
       width="100.00001"
       height="99.999977"
       x="325"
       y="1375"
       gameObjType="levelArea" />
    <rect
       gameObjType="levelArea"
       y="1375"
       x="450"
       height="99.999977"
       width="99.999977"
       id="rect3451"
       style="fill:#000000;fill-opacity:1;stroke:none"
       maxReflections="2" />
    <rect
       style="fill:#000000;fill-opacity:1;stroke:none"
       id="rect4250"
       width="109.99998"
       height="109.99998"
       x="-50"
       y="1490"
       gameObjType="levelArea"
       maxReflections="2" />
    <rect
       style="fill:#000000;fill-opacity:1;stroke:none"
       id="rect4279"
       width="109.99998"
       height="109.99998"
       x="90"
       y="1490"
       gameObjType="levelArea"
       maxReflections="1" />
    <rect
       gameObjType="levelArea"
       y="1497.6378"
       x="215"
       height="99.999977"
       width="100.00001"
       id="rect4327"
       style="fill:#000000;fill-opacity:1;stroke:none"
       maxReflections="2" />
    <rect
       gameObjType="levelArea"
       y="1490"
       x="350"
       height="109.99998"
       width="109.99998"
       id="rect4451"
       style="fill:#000000;fill-opacity:1;stroke:none"
       maxReflections="2" />
    <path
       style="fill:#ffffff;fill-opacity:1;stroke:none"
       d="m -30,1155 65,0 0,25 -20,0 0,-10 -20,0 0,10 -25,0 z"
       id="path4482"
       gameObjType="levelGeo"
       inkscape:connector-curvature="0"
       sodipodi:nodetypes="ccccccccc" />
    <path
       style="fill:#ffffff;fill-opacity:1;stroke:none"
       d="m 350,1150 50,0 0,15 -50,0 z"
       id="path4103"
       gameObjType="levelGeo"
       inkscape:connector-curvature="0" />
    <path
       style="fill:#ffffff;fill-opacity:1;stroke:none"
       d="m 480,1155 40,0 0,40 -40,0 z"
       id="rect3911"
       gameObjType="levelGeo"
       inkscape:connector-curvature="0" />
    <path
       sodipodi:nodetypes="ccccccc"
       inkscape:connector-curvature="0"
       gameObjType="levelGeo"
       id="path4526"
       d="m 102.57246,1155.1067 36.92754,0 -0.25,18.0898 -11.25,-0.25 0,8.5 -25.42754,0 z"
       style="fill:#ffffff;fill-opacity:1;stroke:none;stroke-width:0.58838409000000003;stroke-miterlimit:4;stroke-opacity:1" />
    <path
       style="fill:#ffffff;fill-opacity:1;stroke:none"
       d="m 210,1275 77.8125,0 0,15.6562 -18.9375,0 0,39.75 -41.375,0 0,-39.75 -17.5,0 z"
       id="path4726"
       gameObjType="levelGeo"
       inkscape:connector-curvature="0"
       sodipodi:nodetypes="ccccccccc" />
    <path
       style="fill:#ffffff;fill-opacity:1;stroke:none"
       d="m 480,1255 40,0 0,40 20,0 0,15 -20,0 0,35 -40,0 0,-35 -20,0 0,-15 20,0 z"
       id="path4985"
       inkscape:connector-curvature="0"
       gameObjType="levelGeo"
       sodipodi:nodetypes="ccccccccccccc" />
    <path
       style="fill:#ffffff;fill-opacity:1;stroke:none"
       d="m 150,1400 0,30 -10,0 0,20 -40,0 0,-50 z"
       id="path3135"
       inkscape:connector-curvature="0"
       sodipodi:nodetypes="ccccccc"
       gameObjType="levelGeo" />
    <path
       style="fill:#ffffff;fill-opacity:1;stroke:none"
       d="m 215,1400 20,0 0,15.6375 -20,0 z"
       id="path3428"
       gameObjType="levelGeo"
       inkscape:connector-curvature="0" />
    <path
       inkscape:connector-curvature="0"
       gameObjType="levelGeo"
       id="path3430"
       d="m 215,1435 70,0 0,15 -70,0 z"
       style="fill:#ffffff;fill-opacity:1;stroke:none" />
    <path
       inkscape:connector-curvature="0"
       gameObjType="levelGeo"
       id="path3457"
       d="m 475,1395 30,0 0,30 -30,0 z"
       style="fill:#ffffff;fill-opacity:1;stroke:none" />
    <path
       style="fill:#ffffff;fill-opacity:1;stroke:none"
       d="m -40,1535 15.42881,0 L 10,1550 10,1565 -24.57119,1550 -40,1550 z"
       id="path4256"
       gameObjType="levelGeo"
       inkscape:connector-curvature="0"
       sodipodi:nodetypes="ccccccc" />
    <path
       style="fill:#ffffff;fill-opacity:1;stroke:none"
       d="m 105,1520 90,0 0,15 -90,0 z"
       id="path4285"
       gameObjType="levelGeo"
       inkscape:connector-curvature="0" />
    <path
       inkscape:connector-curvature="0"
       gameObjType="levelGeo"
       id="path4333"
       d="m 255,1512.6378 40,0 0,40 -40,0 z"
       style="fill:#ffffff;fill-opacity:1;stroke:none" />
    <path
       sodipodi:nodetypes="ccccccc"
       inkscape:connector-curvature="0"
       gameObjType="levelGeo"
       id="path4453"
       d="m 365,1515 45,0 0.25,55 -25.25,0 0,-40 -20,0 z"
       style="fill:#ffffff;fill-opacity:1;stroke:none" />
    <path
       style="fill:#ffffff;fill-opacity:1;stroke:none"
       d="m -25,1275 50,0 0,40 -20,0 0,-25 -10,0 0,25 -20,0 z"
       id="path4576"
       gameObjType="levelGeo"
       inkscape:connector-curvature="0"
       sodipodi:nodetypes="ccccccccc" />
    <path
       inkscape:connector-curvature="0"
       gameObjType="levelGeo"
       id="path4644"
       d="m 95,1285 20.28436,0 0,10 19.43128,0 0,-10 20.28436,0 0,17.5359 -60,0 z"
       style="fill:#ffffff;fill-opacity:1;stroke:none"
       sodipodi:nodetypes="ccccccccc" />
    <path
       style="fill:#ffffff;fill-opacity:1;stroke:none"
       d="m 395,1257.3622 0,15 -25,0 0,25 45,0 0,15 -30,0 0,32.6378 -30,0 0,-87.6378 z"
       id="path4880"
       inkscape:connector-curvature="0"
       gameObjType="levelGeo"
       sodipodi:nodetypes="ccccccccccc" />
    <path
       style="fill:#ffffff;fill-opacity:1;stroke:none"
       d="m 250,1160 50,0 0,15 -50,0 z"
       id="path4058"
       gameObjType="levelGeo"
       inkscape:connector-curvature="0" />
    <rect
       width="10"
       y="1540"
       x="490"
       height="10"
       id="rect4457-9"
       style="fill:#ffff00;fill-opacity:1;stroke:none;display:inline"
       gameObjType="goal" />
    <path
       style="fill:#ffffff;fill-opacity:1;stroke:none"
       d="m 335,1400 80,0 0,30 -80,0 z"
       id="path5572"
       gameObjType="levelGeo"
       inkscape:connector-curvature="0" />
    <rect
       gameObjType="player"
       width="10"
       y="1540"
       x="515"
       height="10"
       id="rect4455-9"
       style="fill:#00ff00;fill-opacity:1;stroke:none;display:inline" />
    <path
       inkscape:connector-curvature="0"
       gameObjType="levelGeo"
       id="path5823"
       d="m -35,1635 20,0 0,15.6375 -20,0 z"
       style="fill:#ffffff;fill-opacity:1;stroke:none" />
    <path
       style="fill:#ffffff;fill-opacity:1;stroke:none"
       d="m -35,1670 70,0 0,15 -70,0 z"
       id="path5825"
       gameObjType="levelGeo"
       inkscape:connector-curvature="0" />
    <rect
       gameObjType="goal"
       style="fill:#ffff00;fill-opacity:1;stroke:none;display:inline"
       id="rect5687"
       height="10"
       x="25"
       y="1675"
       width="10" />
    <rect
       style="fill:#00ff00;fill-opacity:1;stroke:none;display:inline"
       id="rect5689"
       height="10"
       x="-35"
       y="1675"
       width="10"
       gameObjType="player" />
    <rect
       maxReflections="2"
       gameObjType="levelArea"
       y="1620"
       x="95"
       height="99.999977"
       width="99.999977"
       id="rect3321"
       style="fill:#000000;fill-opacity:1;stroke:none" />
    <path
       inkscape:connector-curvature="0"
       gameObjType="levelGeo"
       id="path3323"
       d="m 110,1650 40,0 0,40 -20,0 0,10 -20,0 z"
       style="fill:#ffffff;fill-opacity:1;stroke:none"
       sodipodi:nodetypes="ccccccc" />
    <path
       inkscape:connector-curvature="0"
       gameObjType="levelGeo"
       id="path4056"
       d="m 206.0411,1160 18.78004,0 0,15 -18.78004,0 z"
       style="fill:#ffffff;fill-opacity:1;stroke:none" />
    <rect
       style="fill:#000000;fill-opacity:1;stroke:none"
       id="rect3351"
       width="99.999977"
       height="99.999977"
       x="225"
       y="1625"
       gameObjType="levelArea"
       maxReflections="2" />
    <path
       style="fill:#ffffff;fill-opacity:1;stroke:none"
       d="m 240,1655 40,0 0,40 -40,0 z"
       id="path3353"
       gameObjType="levelGeo"
       inkscape:connector-curvature="0" />
  </g>
  <g
     inkscape:groupmode="layer"
     id="layer2"
     inkscape:label="gameObjects"
     style="display:inline">
    <rect
       width="10"
       y="1160"
       x="20"
       height="10"
       id="rect4486"
       style="fill:#ffff00;fill-opacity:1;stroke:none"
       gameObjType="goal" />
    <rect
       gameObjType="goal"
       style="fill:#ffff00;fill-opacity:1;stroke:none"
       id="rect4530"
       height="10"
       x="152.70709"
       y="1168.77"
       width="10" />
    <rect
       gameObjType="goal"
       style="fill:#ffff00;fill-opacity:1;stroke:none"
       id="rect4101"
       height="10"
       x="385"
       y="1190"
       width="10" />
    <rect
       gameObjType="goal"
       style="fill:#d9d987;fill-opacity:1;stroke:none"
       id="rect4054"
       height="10"
       x="270"
       y="1165"
       width="10" />
    <rect
       width="10"
       y="1160"
       x="505"
       height="10"
       id="rect3846-0"
       style="fill:#ffff00;fill-opacity:1;stroke:none"
       gameObjType="goal" />
    <rect
       gameObjType="goal"
       style="fill:#ffff00;fill-opacity:1;stroke:none"
       id="rect4574"
       height="10"
       x="10"
       y="1305"
       width="10" />
    <rect
       width="10"
       y="1290"
       x="140"
       height="10"
       id="rect4642"
       style="fill:#ffff00;fill-opacity:1;stroke:none"
       gameObjType="goal" />
    <rect
       gameObjType="goal"
       style="fill:#ffff00;fill-opacity:1;stroke:none"
       id="rect4809"
       height="10"
       x="275.17615"
       y="1277.9911"
       width="10" />
    <rect
       width="10"
       y="1302.3622"
       x="400"
       height="10"
       id="rect4874"
       style="fill:#ffff00;fill-opacity:1;stroke:none"
       gameObjType="goal" />
    <rect
       width="10"
       y="1300"
       x="525"
       height="10"
       id="rect4983"
       style="fill:#ffff00;fill-opacity:1;stroke:none"
       gameObjType="goal" />
    <rect
       width="10"
       y="1520"
       x="430"
       height="10"
       id="rect4457"
       style="fill:#ffff00;fill-opacity:1;stroke:none"
       gameObjType="goal" />
    <rect
       gameObjType="goal"
       style="fill:#ffff00;fill-opacity:1;stroke:none"
       id="rect4329"
       height="10"
       x="280"
       y="1527.6378"
       width="10" />
    <rect
       width="10"
       y="1525"
       x="175"
       height="10"
       id="rect4281"
       style="fill:#ffff00;fill-opacity:1;stroke:none"
       gameObjType="goal" />
    <rect
       width="10"
       y="1540"
       x="40"
       height="10"
       id="rect4252"
       style="fill:#ffff00;fill-opacity:1;stroke:none"
       gameObjType="goal" />
    <rect
       gameObjType="goal"
       style="fill:#ffff00;fill-opacity:1;stroke:none"
       id="rect3453"
       height="10"
       x="515"
       y="1440"
       width="10" />
    <rect
       width="10"
       y="1405"
       x="270"
       height="10"
       id="rect3424"
       style="fill:#ffff00;fill-opacity:1;stroke:none"
       gameObjType="goal" />
    <rect
       gameObjType="goal"
       style="fill:#ffff00;fill-opacity:1;stroke:none"
       id="rect3127"
       height="10"
       x="140"
       y="1405"
       width="10" />
    <rect
       width="10"
       y="1417.3622"
       x="25"
       height="10"
       id="rect5031"
       style="fill:#ffff00;fill-opacity:1;stroke:none"
       gameObjType="goal" />
    <rect
       width="10"
       y="1572.6378"
       x="230"
       height="10"
       id="rect4335"
       style="fill:#00a3ff;fill-opacity:1;stroke:none"
       gameObjType="key" />
    <rect
       gameObjType="key"
       style="fill:#00a3ff;fill-opacity:1;stroke:none"
       id="rect4287"
       height="10"
       x="165"
       y="1540"
       width="10" />
    <rect
       gameObjType="key"
       style="fill:#00a3ff;fill-opacity:1;stroke:none"
       id="rect4258"
       height="10"
       x="5"
       y="1520"
       width="10" />
    <rect
       width="10"
       y="1415"
       x="515"
       height="10"
       id="rect3461"
       style="fill:#00a3ff;fill-opacity:1;stroke:none"
       gameObjType="key" />
    <rect
       gameObjType="player"
       width="10"
       y="1520"
       x="370"
       height="10"
       id="rect4455"
       style="fill:#00ff00;fill-opacity:1;stroke:none" />
    <rect
       gameObjType="player"
       width="10"
       y="1542.6378"
       x="260"
       height="10"
       id="rect4331"
       style="fill:#00ff00;fill-opacity:1;stroke:none" />
    <rect
       style="fill:#00ff00;fill-opacity:1;stroke:none"
       id="rect4283"
       height="10"
       x="115"
       y="1525"
       width="10"
       gameObjType="player" />
    <rect
       style="fill:#00ff00;fill-opacity:1;stroke:none"
       id="rect4254"
       height="10"
       x="-35"
       y="1540"
       width="10"
       gameObjType="player" />
    <rect
       gameObjType="player"
       width="10"
       y="1415"
       x="485"
       height="10"
       id="rect3455"
       style="fill:#00ff00;fill-opacity:1;stroke:none" />
    <rect
       style="fill:#00ff00;fill-opacity:1;stroke:none"
       id="rect3426"
       height="10"
       x="220"
       y="1405"
       width="10"
       gameObjType="player" />
    <rect
       gameObjType="player"
       width="10"
       y="1440"
       x="100"
       height="10"
       id="rect3129"
       style="fill:#00ff00;fill-opacity:1;stroke:none" />
    <rect
       style="fill:#00ff00;fill-opacity:1;stroke:none"
       id="rect5033"
       height="10"
       x="-25"
       y="1417.3622"
       width="10"
       gameObjType="player" />
    <rect
       style="fill:#00ff00;fill-opacity:1;stroke:none"
       id="rect4728"
       height="10"
       x="214.48668"
       y="1278.1305"
       width="10"
       gameObjType="player" />
    <rect
       gameObjType="player"
       width="10"
       y="1262.3622"
       x="380"
       height="10"
       id="rect4872"
       style="fill:#00ff00;fill-opacity:1;stroke:none" />
    <rect
       gameObjType="player"
       width="10"
       y="1300.1394"
       x="464.31055"
       height="10"
       id="rect4981"
       style="fill:#00ff00;fill-opacity:1;stroke:none" />
    <rect
       style="fill:#00ff00;fill-opacity:1;stroke:none"
       id="rect4640"
       height="10"
       x="100"
       y="1290"
       width="10"
       gameObjType="player" />
    <rect
       gameObjType="player"
       width="10"
       y="1305"
       x="-20"
       height="10"
       id="rect4572"
       style="fill:#00ff00;fill-opacity:1;stroke:none" />
    <rect
       gameObjType="player"
       width="10"
       y="1168.9061"
       x="107.41425"
       height="10"
       id="rect4528"
       style="fill:#00ff00;fill-opacity:1;stroke:none" />
    <rect
       style="fill:#00ff00;fill-opacity:1;stroke:none"
       id="rect4484"
       height="10"
       x="-25"
       y="1170"
       width="10"
       gameObjType="player" />
    <rect
       gameObjType="player"
       width="10"
       y="1155"
       x="355"
       height="10"
       id="rect4409"
       style="fill:#00ff00;fill-opacity:1;stroke:none" />
    <rect
       gameObjType="player"
       width="10"
       y="1165"
       x="210"
       height="10"
       id="rect4052"
       style="fill:#00ff00;fill-opacity:1;stroke:none" />
    <rect
       style="fill:#00ff00;fill-opacity:1;stroke:none"
       id="rect3844-3"
       height="10"
       x="490"
       y="1185"
       width="10"
       gameObjType="player" />
    <rect
       gameObjType="ballKey"
       style="fill:#ff3b00;fill-opacity:1;stroke:none"
       id="rect5473"
       height="10"
       x="555"
       y="1525"
       width="10" />
    <rect
       width="10"
       y="1417.3622"
       x="370"
       height="10"
       id="rect5574"
       style="fill:#ffff00;fill-opacity:1;stroke:none"
       gameObjType="goal" />
    <rect
       gameObjType="key"
       style="fill:#00a3ff;fill-opacity:1;stroke:none"
       id="rect5576"
       height="10"
       x="400"
       y="1417.3622"
       width="10" />
    <rect
       style="fill:#00ff00;fill-opacity:1;stroke:none"
       id="rect5578"
       height="10"
       x="340"
       y="1417.3622"
       width="10"
       gameObjType="player" />
    <rect
       width="10"
       y="1638.9532"
       x="-29.52063"
       height="10"
       id="rect5827"
       style="fill:#ff3b00;fill-opacity:1;stroke:none"
       gameObjType="ballKey" />
    <rect
       gameObjType="goal"
       style="fill:#ffff00;fill-opacity:1;stroke:none"
       id="rect3325"
       height="10"
       x="115"
       y="1690"
       width="10" />
    <rect
       gameObjType="player"
       width="10"
       y="1680"
       x="135"
       height="10"
       id="rect3327"
       style="fill:#00ff00;fill-opacity:1;stroke:none" />
    <rect
       width="10"
       y="1690"
       x="175"
       height="10"
       id="rect3329"
       style="fill:#00a3ff;fill-opacity:1;stroke:none"
       gameObjType="key" />
    <rect
       width="10"
       y="1660"
       x="225"
       height="10"
       id="rect3355"
       style="fill:#ffff00;fill-opacity:1;stroke:none"
       gameObjType="goal" />
    <rect
       style="fill:#00ff00;fill-opacity:1;stroke:none"
       id="rect3357"
       height="10"
       x="250"
       y="1685"
       width="10"
       gameObjType="player" />
    <rect
       gameObjType="key"
       style="fill:#00a3ff;fill-opacity:1;stroke:none"
       id="rect3359"
       height="10"
       x="315"
       y="1660"
       width="10" />
    <rect
       gameObjType="key"
       style="fill:#00a3ff;fill-opacity:1;stroke:none"
       id="rect3532"
       height="10"
       x="135"
       y="1655"
       width="10" />
  </g>
</svg>
