<?xml version="1.0" encoding="UTF-8" standalone="no"?>
<!-- Created with Inkscape (http://www.inkscape.org/) -->

<svg
   xmlns:osb="http://www.openswatchbook.org/uri/2009/osb"
   xmlns:dc="http://purl.org/dc/elements/1.1/"
   xmlns:cc="http://creativecommons.org/ns#"
   xmlns:rdf="http://www.w3.org/1999/02/22-rdf-syntax-ns#"
   xmlns:svg="http://www.w3.org/2000/svg"
   xmlns="http://www.w3.org/2000/svg"
   xmlns:sodipodi="http://sodipodi.sourceforge.net/DTD/sodipodi-0.dtd"
   xmlns:inkscape="http://www.inkscape.org/namespaces/inkscape"
   width="200"
   height="200"
   id="svg2"
   version="1.1"
   inkscape:version="0.48.2 r9819"
   sodipodi:docname="levels.svg"
   inkscape:export-filename="/Users/stevesan84/reflect_git/svg/levels.png"
   inkscape:export-xdpi="200.07483"
   inkscape:export-ydpi="200.07483">
  <defs
     id="defs4">
    <linearGradient
       id="linearGradient4006"
       osb:paint="solid">
      <stop
         style="stop-color:#000000;stop-opacity:1;"
         offset="0"
         id="stop4008" />
    </linearGradient>
  </defs>
  <sodipodi:namedview
     id="base"
     pagecolor="#ffffff"
     bordercolor="#666666"
     borderopacity="1.0"
     inkscape:pageopacity="0.0"
     inkscape:pageshadow="2"
     inkscape:zoom="1.581306"
     inkscape:cx="373.85615"
     inkscape:cy="-481.88921"
     inkscape:document-units="px"
     inkscape:current-layer="layer2"
     showgrid="true"
     inkscape:window-width="1276"
     inkscape:window-height="756"
     inkscape:window-x="7"
     inkscape:window-y="0"
     inkscape:window-maximized="0"
     inkscape:snap-global="true"
     showguides="true"
     inkscape:guide-bbox="true">
    <inkscape:grid
       type="xygrid"
       id="grid4876"
       empspacing="5"
       visible="true"
       enabled="true"
       snapvisiblegridlinesonly="true"
       spacingx="5px"
       spacingy="5px" />
  </sodipodi:namedview>
  <metadata
     id="metadata7">
    <rdf:RDF>
      <cc:Work
         rdf:about="">
        <dc:format>image/svg+xml</dc:format>
        <dc:type
           rdf:resource="http://purl.org/dc/dcmitype/StillImage" />
        <dc:title></dc:title>
      </cc:Work>
    </rdf:RDF>
  </metadata>
  <g
     inkscape:label="level1"
     inkscape:groupmode="layer"
     id="layer1">
    <rect
       maxReflections="1"
       gameObjType="levelArea"
       y="700"
       x="250"
       height="99.999977"
       width="99.999977"
       id="rect3310"
       style="fill:#000000;fill-opacity:1;stroke:none" />
    <rect
       style="fill:#000000;fill-opacity:1;stroke:none"
       id="rect3351"
       width="99.999977"
       height="99.999977"
       x="375"
       y="575"
       gameObjType="levelArea"
       maxReflections="2" />
    <rect
       maxReflections="2"
       gameObjType="levelArea"
       y="575"
       x="500"
       height="99.999977"
       width="99.999977"
       id="rect3321"
       style="fill:#000000;fill-opacity:1;stroke:none" />
    <rect
       maxReflections="1"
       style="fill:#000000;fill-opacity:1;stroke:none"
       id="rect5683"
       width="100.00001"
       height="99.999977"
       x="125"
       y="700"
       gameObjType="levelArea" />
    <rect
       gameObjType="levelArea"
       y="700"
       x="0"
       height="99.999977"
       width="100"
       id="rect4451-2"
       style="fill:#000000;fill-opacity:1;stroke:none"
       maxReflections="0" />
    <rect
       gameObjType="levelArea"
       y="450"
       x="250"
       height="99.999977"
       width="100.00001"
       id="rect4451"
       style="fill:#000000;fill-opacity:1;stroke:none"
       maxReflections="2" />
    <rect
       gameObjType="levelArea"
       y="575"
       x="250"
       height="99.999977"
       width="100.00001"
       id="rect4327"
       style="fill:#000000;fill-opacity:1;stroke:none"
       maxReflections="2" />
    <rect
       style="fill:#000000;fill-opacity:1;stroke:none"
       id="rect4279"
       width="100.00001"
       height="99.999977"
       x="125"
       y="575"
       gameObjType="levelArea"
       maxReflections="1" />
    <rect
       style="fill:#000000;fill-opacity:1;stroke:none"
       id="rect4250"
       width="100"
       height="99.999977"
       x="0"
       y="575"
       gameObjType="levelArea"
       maxReflections="2" />
    <rect
       gameObjType="levelArea"
       y="450"
       x="500"
       height="99.999977"
       width="99.999977"
       id="rect3451"
       style="fill:#000000;fill-opacity:1;stroke:none"
       maxReflections="2" />
    <rect
       maxReflections="0"
       style="fill:#000000;fill-opacity:1;stroke:none"
       id="rect5570"
       width="100.00001"
       height="99.999977"
       x="375"
       y="450"
       gameObjType="levelArea" />
    <rect
       style="fill:#000000;fill-opacity:1;stroke:none"
       id="rect3422"
       width="99.999985"
       height="99.999985"
       x="0"
       y="450"
       gameObjType="levelArea"
       maxReflections="1" />
    <rect
       gameObjType="levelArea"
       y="325"
       x="500"
       height="99.999977"
       width="100"
       id="rect3125"
       style="fill:#000000;fill-opacity:1;stroke:none"
       maxReflections="1" />
    <rect
       style="fill:#000000;fill-opacity:1;stroke:none"
       id="rect5029"
       width="100"
       height="99.999985"
       x="125"
       y="450"
       gameObjType="levelArea"
       maxReflections="2" />
    <rect
       gameObjType="levelArea"
       y="325"
       x="375"
       height="99.999985"
       width="99.999985"
       id="rect4977"
       style="fill:#000000;fill-opacity:1;stroke:none"
       maxReflections="1" />
    <rect
       gameObjType="levelArea"
       y="325"
       x="250"
       height="99.999977"
       width="100.00001"
       id="rect4868"
       style="fill:#000000;fill-opacity:1;stroke:none"
       maxReflections="1" />
    <rect
       style="fill:#000000;fill-opacity:1;stroke:none"
       id="rect4724"
       width="99.999985"
       height="99.999985"
       x="125"
       y="325"
       gameObjType="levelArea"
       maxReflections="1" />
    <rect
       style="fill:#000000;fill-opacity:1;stroke:none"
       id="rect4638"
       width="100"
       height="99.999985"
       x="0"
       y="325"
       gameObjType="levelArea"
       maxReflections="1" />
    <rect
       gameObjType="levelArea"
       y="200"
       x="500"
       height="99.999985"
       width="100"
       id="rect4570"
       style="fill:#000000;fill-opacity:1;stroke:none"
       maxReflections="1" />
    <rect
       style="fill:#000000;fill-opacity:1;stroke:none"
       id="area3"
       width="99.999977"
       height="99.999977"
       x="625"
       y="450"
       gameObjType="levelArea"
       maxReflections="1" />
    <rect
       gameObjType="levelArea"
       y="200"
       x="375"
       height="99.999992"
       width="99.999985"
       id="area2"
       style="fill:#000000;fill-opacity:1;stroke:none"
       maxReflections="1" />
    <rect
       gameObjType="levelArea"
       y="200"
       x="250"
       height="99.999977"
       width="100.00001"
       id="area1"
       style="fill:#000000;fill-opacity:1;stroke:none"
       maxReflections="1" />
    <rect
       style="fill:#000000;fill-opacity:1;stroke:none"
       id="area0"
       width="100"
       height="99.999985"
       x="125"
       y="200"
       gameObjType="levelArea"
       maxReflections="1" />
    <rect
       gameObjType="levelArea"
       y="200"
       x="0"
       height="99.999985"
       width="100"
       id="rect4480"
       style="fill:#000000;fill-opacity:1;stroke:none"
       maxReflections="0" />
    <path
       style="fill:#ffffff;fill-opacity:1;stroke:none"
       d="m 93.426053,729.8713 -21.713033,32.3622 -15,0 0,-10 -13.30506,0 0.0181,10 L 5,762.2335 5,730 c 29.99834,-0.2888 58.42644,-0.1287 88.426053,-0.1287 z"
       id="path3236"
       inkscape:connector-curvature="0"
       gameObjType="levelGeo"
       sodipodi:nodetypes="ccccccccc" />
    <path
       style="fill:#ffffff;fill-opacity:1;stroke:none"
       d="m 145,487.36221 20,0 0,15.6375 -20,0 z"
       id="path5035"
       gameObjType="levelGeo"
       inkscape:connector-curvature="0" />
    <path
       style="fill:#ffffff;fill-opacity:1;stroke:none"
       d="m 20,230 65,0 0,25 -20,0 0,-10 -20,0 0,10 -25,0 z"
       id="path4482"
       gameObjType="levelGeo"
       inkscape:connector-curvature="0"
       sodipodi:nodetypes="ccccccccc" />
    <path
       style="fill:#ffffff;fill-opacity:1;stroke:none"
       d="m 400,225 50,0 0,15 -50,0 z"
       id="path4103"
       gameObjType="levelGeo"
       inkscape:connector-curvature="0" />
    <path
       style="fill:#ffffff;fill-opacity:1;stroke:none"
       d="m 655,480 40,0 0,40 -40,0 z"
       id="rect3911"
       gameObjType="levelGeo"
       inkscape:connector-curvature="0" />
    <path
       sodipodi:nodetypes="ccccccc"
       inkscape:connector-curvature="0"
       gameObjType="levelGeo"
       id="path4526"
       d="m 152.57246,230.1067 36.92754,0 -0.25,18.0898 -11.25,-0.25 0,8.5 -25.42754,0 z"
       style="fill:#ffffff;fill-opacity:1;stroke:none" />
    <path
       style="fill:#ffffff;fill-opacity:1;stroke:none"
       d="m 135,350 77.8125,0 0,15.6562 -18.9375,0 0,39.75 -41.375,0 0,-39.75 -17.5,0 z"
       id="path4726"
       gameObjType="levelGeo"
       inkscape:connector-curvature="0"
       sodipodi:nodetypes="ccccccccc" />
    <path
       style="fill:#ffffff;fill-opacity:1;stroke:none"
       d="m 405,330 40,0 0,40 20,0 0,15 -20,0 0,35 -40,0 0,-35 -20,0 0,-15 20,0 z"
       id="path4985"
       inkscape:connector-curvature="0"
       gameObjType="levelGeo"
       sodipodi:nodetypes="ccccccccccccc" />
    <path
       style="fill:#ffffff;fill-opacity:1;stroke:none"
       d="m 575,350 0,30 -10,0 0,20 -40,0 0,-50 z"
       id="path3135"
       inkscape:connector-curvature="0"
       sodipodi:nodetypes="ccccccc"
       gameObjType="levelGeo" />
    <path
       style="fill:#ffffff;fill-opacity:1;stroke:none"
       d="m 15,475 20,0 0,15.6375 -20,0 z"
       id="path3428"
       gameObjType="levelGeo"
       inkscape:connector-curvature="0" />
    <path
       inkscape:connector-curvature="0"
       gameObjType="levelGeo"
       id="path3430"
       d="m 15,510 70,0 0,15 -70,0 z"
       style="fill:#ffffff;fill-opacity:1;stroke:none" />
    <path
       inkscape:connector-curvature="0"
       gameObjType="levelGeo"
       id="path3457"
       d="m 525,470 30,0 0,30 -30,0 z"
       style="fill:#ffffff;fill-opacity:1;stroke:none" />
    <path
       style="fill:#ffffff;fill-opacity:1;stroke:none"
       d="M 5,610 20.42881,610 55,625 55,640 20.42881,625 5,625 z"
       id="path4256"
       gameObjType="levelGeo"
       inkscape:connector-curvature="0"
       sodipodi:nodetypes="ccccccc" />
    <path
       style="fill:#ffffff;fill-opacity:1;stroke:none"
       d="m 130,605 90,0 0,15 -90,0 z"
       id="path4285"
       gameObjType="levelGeo"
       inkscape:connector-curvature="0" />
    <path
       inkscape:connector-curvature="0"
       gameObjType="levelGeo"
       id="path4333"
       d="m 290,589.99998 40,0 0,40 -40,0 z"
       style="fill:#ffffff;fill-opacity:1;stroke:none" />
    <path
       sodipodi:nodetypes="ccccccc"
       inkscape:connector-curvature="0"
       gameObjType="levelGeo"
       id="path4453"
       d="m 260,475 45,0 0.25,55 -25.25,0 0,-40 -20,0 z"
       style="fill:#ffffff;fill-opacity:1;stroke:none" />
    <path
       style="fill:#ffffff;fill-opacity:1;stroke:none"
       d="m 525,225 50,0 0,40 -20,0 0,-25 -10,0 0,25 -20,0 z"
       id="path4576"
       gameObjType="levelGeo"
       inkscape:connector-curvature="0"
       sodipodi:nodetypes="ccccccccc" />
    <path
       inkscape:connector-curvature="0"
       gameObjType="levelGeo"
       id="path4644"
       d="m 20,360 20.28436,0 0,10 19.43128,0 0,-10 20.28436,0 0,17.5359 -60,0 z"
       style="fill:#ffffff;fill-opacity:1;stroke:none"
       sodipodi:nodetypes="ccccccccc" />
    <path
       style="fill:#ffffff;fill-opacity:1;stroke:none"
       d="m 320,332.3622 0,15 -25,0 0,25 45,0 0,15 -30,0 0,32.6378 -30,0 0,-87.6378 z"
       id="path4880"
       inkscape:connector-curvature="0"
       gameObjType="levelGeo"
       sodipodi:nodetypes="ccccccccccc" />
    <path
       style="fill:#ffffff;fill-opacity:1;stroke:none"
       d="m 300,235 50,0 0,15 -50,0 z"
       id="path4058"
       gameObjType="levelGeo"
       inkscape:connector-curvature="0" />
    <rect
       width="10"
       y="747.23352"
       x="6.7130132"
       height="10"
       id="rect4457-9"
       style="fill:#ffff00;fill-opacity:1;stroke:none;display:inline"
       gameObjType="goal" />
    <path
       style="fill:#ffffff;fill-opacity:1;stroke:none"
       d="m 385,475 80,0 0,30 -80,0 z"
       id="path5572"
       gameObjType="levelGeo"
       inkscape:connector-curvature="0" />
    <rect
       gameObjType="player"
       width="10"
       y="747.23352"
       x="31.713013"
       height="10"
       id="rect4455-9"
       style="fill:#00ff00;fill-opacity:1;stroke:none;display:inline" />
    <path
       inkscape:connector-curvature="0"
       gameObjType="levelGeo"
       id="path5823"
       d="m 139.52063,716.04676 20,0 0,15.6375 -20,0 z"
       style="fill:#ffffff;fill-opacity:1;stroke:none" />
    <path
       style="fill:#ffffff;fill-opacity:1;stroke:none"
       d="m 139.52063,751.04676 70,0 0,15 -70,0 z"
       id="path5825"
       gameObjType="levelGeo"
       inkscape:connector-curvature="0" />
    <rect
       gameObjType="goal"
       style="fill:#ffff00;fill-opacity:1;stroke:none;display:inline"
       id="rect5687"
       height="10"
       x="199.52063"
       y="756.04675"
       width="10" />
    <rect
       style="fill:#00ff00;fill-opacity:1;stroke:none;display:inline"
       id="rect5689"
       height="10"
       x="139.52063"
       y="756.04675"
       width="10"
       gameObjType="player" />
    <path
       inkscape:connector-curvature="0"
       gameObjType="levelGeo"
       id="path3323"
       d="m 515,605 40,0 0,40 -20,0 0,10 -20,0 z"
       style="fill:#ffffff;fill-opacity:1;stroke:none"
       sodipodi:nodetypes="ccccccc" />
    <path
       inkscape:connector-curvature="0"
       gameObjType="levelGeo"
       id="path4056"
       d="m 256.0411,235 18.78004,0 0,15 -18.78004,0 z"
       style="fill:#ffffff;fill-opacity:1;stroke:none" />
    <path
       style="fill:#ffffff;fill-opacity:1;stroke:none"
       d="m 390,605 40,0 0,40 -40,0 z"
       id="path3353"
       gameObjType="levelGeo"
       inkscape:connector-curvature="0" />
    <path
       inkscape:connector-curvature="0"
       gameObjType="levelGeo"
       id="path3312"
       d="m 260,730 80,0 0,40 -80,0 z"
       style="fill:#ffffff;fill-opacity:1;stroke:none"
       sodipodi:nodetypes="ccccc" />
  </g>
  <g
     inkscape:groupmode="layer"
     id="layer2"
     inkscape:label="gameObjects"
     style="display:inline">
    <rect
       width="10"
       y="235"
       x="70"
       height="10"
       id="rect4486"
       style="fill:#ffff00;fill-opacity:1;stroke:none"
       gameObjType="goal" />
    <rect
       gameObjType="goal"
       style="fill:#ffff00;fill-opacity:1;stroke:none"
       id="rect4530"
       height="10"
       x="202.70709"
       y="243.77002"
       width="10" />
    <rect
       gameObjType="goal"
       style="fill:#ffff00;fill-opacity:1;stroke:none"
       id="rect4101"
       height="10"
       x="435"
       y="265"
       width="10" />
    <rect
       gameObjType="goal"
       style="fill:#d9d987;fill-opacity:1;stroke:none"
       id="rect4054"
       height="10"
       x="320"
       y="240"
       width="10" />
    <rect
       width="10"
       y="485"
       x="680"
       height="10"
       id="rect3846-0"
       style="fill:#ffff00;fill-opacity:1;stroke:none"
       gameObjType="goal" />
    <rect
       gameObjType="goal"
       style="fill:#ffff00;fill-opacity:1;stroke:none"
       id="rect4574"
       height="10"
       x="560"
       y="255"
       width="10" />
    <rect
       width="10"
       y="365"
       x="65"
       height="10"
       id="rect4642"
       style="fill:#ffff00;fill-opacity:1;stroke:none"
       gameObjType="goal" />
    <rect
       gameObjType="goal"
       style="fill:#ffff00;fill-opacity:1;stroke:none"
       id="rect4809"
       height="10"
       x="200.17615"
       y="352.99109"
       width="10" />
    <rect
       width="10"
       y="377.36218"
       x="325"
       height="10"
       id="rect4874"
       style="fill:#ffff00;fill-opacity:1;stroke:none"
       gameObjType="goal" />
    <rect
       width="10"
       y="375"
       x="450"
       height="10"
       id="rect4983"
       style="fill:#ffff00;fill-opacity:1;stroke:none"
       gameObjType="goal" />
    <rect
       width="10"
       y="480"
       x="325"
       height="10"
       id="rect4457"
       style="fill:#ffff00;fill-opacity:1;stroke:none"
       gameObjType="goal" />
    <rect
       gameObjType="goal"
       style="fill:#ffff00;fill-opacity:1;stroke:none"
       id="rect4329"
       height="10"
       x="315"
       y="605"
       width="10" />
    <rect
       width="10"
       y="610"
       x="200"
       height="10"
       id="rect4281"
       style="fill:#ffff00;fill-opacity:1;stroke:none"
       gameObjType="goal" />
    <rect
       width="10"
       y="615"
       x="85"
       height="10"
       id="rect4252"
       style="fill:#ffff00;fill-opacity:1;stroke:none"
       gameObjType="goal" />
    <rect
       gameObjType="goal"
       style="fill:#ffff00;fill-opacity:1;stroke:none"
       id="rect3453"
       height="10"
       x="565"
       y="515"
       width="10" />
    <rect
       width="10"
       y="480"
       x="70"
       height="10"
       id="rect3424"
       style="fill:#ffff00;fill-opacity:1;stroke:none"
       gameObjType="goal" />
    <rect
       gameObjType="goal"
       style="fill:#ffff00;fill-opacity:1;stroke:none"
       id="rect3127"
       height="10"
       x="565"
       y="355"
       width="10" />
    <rect
       width="10"
       y="492.36218"
       x="200"
       height="10"
       id="rect5031"
       style="fill:#ffff00;fill-opacity:1;stroke:none"
       gameObjType="goal" />
    <rect
       width="10"
       y="650"
       x="265"
       height="10"
       id="rect4335"
       style="fill:#00a3ff;fill-opacity:1;stroke:none"
       gameObjType="key" />
    <rect
       gameObjType="key"
       style="fill:#00a3ff;fill-opacity:1;stroke:none"
       id="rect4287"
       height="10"
       x="190"
       y="625"
       width="10" />
    <rect
       gameObjType="key"
       style="fill:#00a3ff;fill-opacity:1;stroke:none"
       id="rect4258"
       height="10"
       x="50"
       y="595"
       width="10" />
    <rect
       width="10"
       y="490"
       x="565"
       height="10"
       id="rect3461"
       style="fill:#00a3ff;fill-opacity:1;stroke:none"
       gameObjType="key" />
    <rect
       gameObjType="player"
       width="10"
       y="480"
       x="265"
       height="10"
       id="rect4455"
       style="fill:#00ff00;fill-opacity:1;stroke:none" />
    <rect
       gameObjType="player"
       width="10"
       y="620"
       x="295"
       height="10"
       id="rect4331"
       style="fill:#00ff00;fill-opacity:1;stroke:none" />
    <rect
       style="fill:#00ff00;fill-opacity:1;stroke:none"
       id="rect4283"
       height="10"
       x="140"
       y="610"
       width="10"
       gameObjType="player" />
    <rect
       style="fill:#00ff00;fill-opacity:1;stroke:none"
       id="rect4254"
       height="10"
       x="10"
       y="615"
       width="10"
       gameObjType="player" />
    <rect
       gameObjType="player"
       width="10"
       y="490"
       x="535"
       height="10"
       id="rect3455"
       style="fill:#00ff00;fill-opacity:1;stroke:none" />
    <rect
       style="fill:#00ff00;fill-opacity:1;stroke:none"
       id="rect3426"
       height="10"
       x="20"
       y="480"
       width="10"
       gameObjType="player" />
    <rect
       gameObjType="player"
       width="10"
       y="390"
       x="525"
       height="10"
       id="rect3129"
       style="fill:#00ff00;fill-opacity:1;stroke:none" />
    <rect
       style="fill:#00ff00;fill-opacity:1;stroke:none"
       id="rect5033"
       height="10"
       x="150"
       y="492.36218"
       width="10"
       gameObjType="player" />
    <rect
       style="fill:#00ff00;fill-opacity:1;stroke:none"
       id="rect4728"
       height="10"
       x="139.48669"
       y="353.13049"
       width="10"
       gameObjType="player" />
    <rect
       gameObjType="player"
       width="10"
       y="337.36218"
       x="305"
       height="10"
       id="rect4872"
       style="fill:#00ff00;fill-opacity:1;stroke:none" />
    <rect
       gameObjType="player"
       width="10"
       y="375.1394"
       x="389.31055"
       height="10"
       id="rect4981"
       style="fill:#00ff00;fill-opacity:1;stroke:none" />
    <rect
       style="fill:#00ff00;fill-opacity:1;stroke:none"
       id="rect4640"
       height="10"
       x="25"
       y="365"
       width="10"
       gameObjType="player" />
    <rect
       gameObjType="player"
       width="10"
       y="255"
       x="530"
       height="10"
       id="rect4572"
       style="fill:#00ff00;fill-opacity:1;stroke:none" />
    <rect
       gameObjType="player"
       width="10"
       y="243.90613"
       x="157.41425"
       height="10"
       id="rect4528"
       style="fill:#00ff00;fill-opacity:1;stroke:none" />
    <rect
       style="fill:#00ff00;fill-opacity:1;stroke:none"
       id="rect4484"
       height="10"
       x="25"
       y="245"
       width="10"
       gameObjType="player" />
    <rect
       gameObjType="player"
       width="10"
       y="230"
       x="405"
       height="10"
       id="rect4409"
       style="fill:#00ff00;fill-opacity:1;stroke:none" />
    <rect
       gameObjType="player"
       width="10"
       y="240"
       x="260"
       height="10"
       id="rect4052"
       style="fill:#00ff00;fill-opacity:1;stroke:none" />
    <rect
       style="fill:#00ff00;fill-opacity:1;stroke:none"
       id="rect3844-3"
       height="10"
       x="665"
       y="510"
       width="10"
       gameObjType="player" />
    <rect
       gameObjType="ballKey"
       style="fill:#ff3b00;fill-opacity:1;stroke:none"
       id="rect5473"
       height="10"
       x="71.713013"
       y="732.23352"
       width="10" />
    <rect
       width="10"
       y="492.36218"
       x="420"
       height="10"
       id="rect5574"
       style="fill:#ffff00;fill-opacity:1;stroke:none"
       gameObjType="goal" />
    <rect
       gameObjType="key"
       style="fill:#00a3ff;fill-opacity:1;stroke:none"
       id="rect5576"
       height="10"
       x="450"
       y="492.36218"
       width="10" />
    <rect
       style="fill:#00ff00;fill-opacity:1;stroke:none"
       id="rect5578"
       height="10"
       x="390"
       y="492.36218"
       width="10"
       gameObjType="player" />
    <rect
       width="10"
       y="720"
       x="145"
       height="10"
       id="rect5827"
       style="fill:#ff3b00;fill-opacity:1;stroke:none"
       gameObjType="ballKey" />
    <rect
       gameObjType="goal"
       style="fill:#ffff00;fill-opacity:1;stroke:none"
       id="rect3325"
       height="10"
       x="520"
       y="645"
       width="10" />
    <rect
       gameObjType="player"
       width="10"
       y="635"
       x="540"
       height="10"
       id="rect3327"
       style="fill:#00ff00;fill-opacity:1;stroke:none" />
    <rect
       width="10"
       y="645"
       x="585"
       height="10"
       id="rect3329"
       style="fill:#00a3ff;fill-opacity:1;stroke:none"
       gameObjType="key" />
    <rect
       width="10"
       y="610"
       x="380"
       height="10"
       id="rect3355"
       style="fill:#ffff00;fill-opacity:1;stroke:none"
       gameObjType="goal" />
    <rect
       style="fill:#00ff00;fill-opacity:1;stroke:none"
       id="rect3357"
       height="10"
       x="400"
       y="635"
       width="10"
       gameObjType="player" />
    <rect
       gameObjType="key"
       style="fill:#00a3ff;fill-opacity:1;stroke:none"
       id="rect3359"
       height="10"
       x="460"
       y="610"
       width="10" />
    <rect
       gameObjType="key"
       style="fill:#00a3ff;fill-opacity:1;stroke:none"
       id="rect3532"
       height="10"
       x="540"
       y="610"
       width="10" />
    <rect
       width="10"
       y="610"
       x="570"
       height="10"
       id="rect3232"
       style="fill:#00a3ff;fill-opacity:1;stroke:none"
       gameObjType="key" />
    <rect
       gameObjType="goal"
       style="fill:#ffff00;fill-opacity:1;stroke:none"
       id="rect3314"
       height="10"
       x="295"
       y="735"
       width="10" />
    <rect
       gameObjType="player"
       width="10"
       y="760"
       x="295"
       height="10"
       id="rect3316"
       style="fill:#00ff00;fill-opacity:1;stroke:none" />
    <rect
       gameObjType="key"
       style="fill:#00a3ff;fill-opacity:1;stroke:none"
       id="rect3318"
       height="10"
       x="695"
       y="500"
       width="10" />
  </g>
</svg>
